<svg width="16" height="20" viewBox="0 0 16 20" fill="none" xmlns="http://www.w3.org/2000/svg">
<path d="M8.64934 9.16239C9.56554 9.16239 10.4442 8.79843 11.0921 8.15058C11.7399 7.50273 12.1039 6.62405 12.1039 5.70785C12.1039 4.79165 11.7399 3.91298 11.0921 3.26513C10.4442 2.61728 9.56553 2.25332 8.64933 2.25332C7.73313 2.25332 6.85446 2.61728 6.20661 3.26513C5.55876 3.91298 5.1948 4.79165 5.1948 5.70785C5.1948 6.62405 5.55876 7.50273 6.20661 8.15058C6.85446 8.79843 7.73314 9.16239 8.64934 9.16239ZM4.33117 19.526L12.9675 19.526C13.6547 19.526 14.3137 19.253 14.7996 18.7671C15.2854 18.2813 15.5584 17.6222 15.5584 16.9351C15.5584 15.0075 14.7656 13.4633 13.465 12.4183C12.1851 11.3906 10.4681 10.8897 8.64934 10.8897C6.83052 10.8897 5.11362 11.3906 3.83371 12.4183C2.5348 13.4633 1.74026 15.0075 1.74026 16.9351C1.74026 17.6222 2.01323 18.2813 2.49912 18.7671C2.98501 19.253 3.64401 19.526 4.33117 19.526Z" fill="#C0EEEE"/>
<path d="M6.9221 7.43497C7.8383 7.43497 8.71698 7.07101 9.36483 6.42316C10.0127 5.77531 10.3766 4.89664 10.3766 3.98044C10.3766 3.06424 10.0127 2.18556 9.36483 1.53771C8.71698 0.889859 7.8383 0.5259 6.9221 0.5259C6.0059 0.525901 5.12723 0.889859 4.47937 1.53771C3.83152 2.18556 3.46756 3.06424 3.46756 3.98044C3.46756 4.89664 3.83152 5.77531 4.47937 6.42316C5.12723 7.07102 6.0059 7.43497 6.9221 7.43497ZM8.64937 3.98044C8.64937 4.43854 8.46739 4.87787 8.14346 5.2018C7.81954 5.52573 7.3802 5.70771 6.9221 5.70771C6.464 5.70771 6.02466 5.52573 5.70074 5.2018C5.37681 4.87787 5.19483 4.43854 5.19483 3.98044C5.19483 3.52234 5.37681 3.083 5.70074 2.75907C6.02466 2.43515 6.464 2.25317 6.9221 2.25317C7.3802 2.25317 7.81954 2.43515 8.14346 2.75907C8.46739 3.083 8.64937 3.52234 8.64937 3.98044ZM2.60393 17.7986L11.2403 17.7986C11.9274 17.7986 12.5864 17.5256 13.0723 17.0397C13.5582 16.5538 13.8312 15.8948 13.8312 15.2077C13.8312 13.28 13.0384 11.7359 11.7377 10.6909C10.4578 9.66315 8.74092 9.16224 6.9221 9.16224C5.10329 9.16224 3.38638 9.66315 2.10648 10.6909C0.807571 11.7359 0.0130277 13.2801 0.0130279 15.2077C0.013028 15.8948 0.285997 16.5538 0.771886 17.0397C1.25777 17.5256 1.91678 17.7986 2.60393 17.7986ZM11.2403 16.0713L2.60393 16.0713C2.37488 16.0713 2.15521 15.9803 1.99325 15.8184C1.83129 15.6564 1.7403 15.4367 1.7403 15.2077C1.7403 13.7965 2.30166 12.7498 3.18775 12.0381C4.09629 11.3092 5.40211 10.8895 6.9221 10.8895C8.4421 10.8895 9.74791 11.3092 10.6565 12.0381C11.5425 12.7498 12.1039 13.7965 12.1039 15.2077C12.1039 15.4367 12.0129 15.6564 11.851 15.8184C11.689 15.9803 11.4693 16.0713 11.2403 16.0713Z" fill="#334F78"/>
</svg>
