<svg width="41" height="31" viewBox="0 0 41 31" fill="none" xmlns="http://www.w3.org/2000/svg">
<path d="M12.5486 4.92072C13.7011 4.92072 14.7661 5.00822 15.7436 5.27072C16.7187 5.44572 17.5212 5.81073 18.2337 6.24824C18.9487 6.68825 19.4762 7.31326 19.8362 8.11577C20.1862 8.91578 20.3762 9.8933 20.3762 10.9583C20.3762 12.1983 20.1112 13.2634 19.4862 14.0634C18.9487 14.8634 18.0712 15.5784 16.9937 16.1059C18.5087 16.5459 19.6612 17.3459 20.3637 18.4109C21.0662 19.476 21.5162 20.8035 21.5162 22.3185C21.5162 23.5585 21.2537 24.6236 20.8037 25.5136C20.3548 26.4094 19.6812 27.1735 18.8487 27.7311C18.0487 28.2686 17.0712 28.7061 16.0061 28.9711C14.9629 29.2466 13.89 29.3944 12.8111 29.4111L0.913391 29.4286V4.92072H12.5486ZM11.8361 14.8659C12.8111 14.8659 13.6111 14.6034 14.2286 14.1534C14.8436 13.7034 15.1161 12.9109 15.1161 11.9358C15.1161 11.3958 15.0286 10.8708 14.8536 10.5183C14.6642 10.161 14.3894 9.85616 14.0536 9.6308C13.6909 9.43304 13.3033 9.28504 12.9011 9.19079C12.4611 9.10329 12.0111 9.10329 11.4836 9.10329H6.33848V14.8784C6.33848 14.8659 11.8361 14.8659 11.8361 14.8659ZM12.0986 25.3486C12.6361 25.3486 13.1636 25.2611 13.6136 25.1736C14.0536 25.0861 14.5036 24.9086 14.8536 24.6336C15.2036 24.3585 15.4786 24.096 15.7436 23.6585C15.9186 23.2185 16.0936 22.681 16.0936 22.056C16.0936 20.816 15.7436 19.926 15.0286 19.301C14.3161 18.7634 13.3386 18.5009 12.1861 18.5009H6.33848V25.3361H12.1011L12.0986 25.3486ZM29.2439 25.2611C29.9589 25.9736 31.0214 26.3261 32.4389 26.3261C33.4139 26.3261 34.304 26.0611 35.019 25.6111C35.7315 25.0736 36.169 24.546 36.344 24.011H40.6941C39.979 26.1386 38.914 27.6536 37.499 28.6311C36.084 29.5186 34.3915 30.0461 32.3489 30.0461C31.0428 30.0519 29.7474 29.8102 28.5314 29.3336C27.4369 28.9268 26.4603 28.2551 25.6888 27.3786C24.8659 26.5613 24.2549 25.5555 23.9088 24.4485C23.4713 23.296 23.2838 22.056 23.2838 20.6285C23.2838 19.301 23.4588 18.0484 23.9088 16.8959C24.3588 15.7459 24.9738 14.7659 25.7763 13.8784C26.5763 13.0784 27.5538 12.3633 28.6189 11.9233C29.8064 11.4505 31.0732 11.2087 32.3514 11.2108C33.8664 11.2108 35.194 11.4733 36.3465 12.0983C37.4965 12.7233 38.389 13.4284 39.1015 14.4934C39.814 15.4684 40.3416 16.6209 40.7041 17.8634C40.8791 19.1035 40.9666 20.3535 40.8791 21.771H28.0038C28.0038 23.221 28.5289 24.546 29.2439 25.2611ZM34.844 15.9309C34.2189 15.3059 33.2389 14.9534 32.0864 14.9534C31.2864 14.9534 30.6714 15.1284 30.1339 15.3934C29.5964 15.6559 29.2439 16.0184 28.8939 16.3684C28.5671 16.7116 28.3495 17.144 28.2689 17.6109C28.1789 18.0484 28.0938 18.4109 28.0938 18.761H36.084C35.909 17.4459 35.4615 16.5559 34.844 15.9309ZM27.0263 6.61074H36.9715V9.00328H27.0263V6.61074Z" fill="#C0EEEE"/>
<path d="M37.2873 19.7678V21.022H38.5416V19.7678H37.2873ZM2.16766 2.20795V0.953674H0.913391V2.20795H2.16766ZM2.16766 27.2934H0.913391V28.5477H2.16766V27.2934ZM20.9818 19.7678C20.9818 22.0963 21.9068 24.3295 23.5533 25.9761C25.1999 27.6227 27.4331 28.5477 29.7617 28.5477V26.0391C28.0984 26.0391 26.5032 25.3784 25.3271 24.2023C24.151 23.0262 23.4903 21.431 23.4903 19.7678H20.9818ZM29.7617 10.9879C27.4331 10.9879 25.1999 11.9129 23.5533 13.5594C21.9068 15.206 20.9818 17.4392 20.9818 19.7678H23.4903C23.4903 18.1045 24.151 16.5094 25.3271 15.3332C26.5032 14.1571 28.0984 13.4964 29.7617 13.4964V10.9879ZM38.5416 19.7678C38.5416 17.4392 37.6165 15.206 35.97 13.5594C34.3234 11.9129 32.0902 10.9879 29.7617 10.9879V13.4964C31.4249 13.4964 33.0201 14.1571 34.1962 15.3332C35.3723 16.5094 36.033 18.1045 36.033 19.7678H38.5416ZM34.8465 23.4403C34.2657 24.2456 33.5017 24.9013 32.6176 25.3531C31.7335 25.805 30.7546 26.0401 29.7617 26.0391V28.5477C31.1512 28.5486 32.5211 28.2192 33.7585 27.5868C34.9958 26.9544 36.0652 26.037 36.8784 24.9103L34.8465 23.4403ZM2.16766 3.46222H8.43903V0.953674H2.16766V3.46222ZM8.43903 13.4964H2.16766V16.0049H8.43903V13.4964ZM3.42194 14.7507V2.20795H0.913391V14.7507H3.42194ZM13.4561 8.47931C13.4561 9.80993 12.9275 11.086 11.9866 12.0269C11.0458 12.9678 9.76964 13.4964 8.43903 13.4964V16.0049C10.4349 16.0049 12.3491 15.2121 13.7605 13.8007C15.1718 12.3894 15.9647 10.4752 15.9647 8.47931H13.4561ZM8.43903 3.46222C9.76964 3.46222 11.0458 3.9908 11.9866 4.93169C12.9275 5.87258 13.4561 7.1487 13.4561 8.47931H15.9647C15.9647 6.48339 15.1718 4.56921 13.7605 3.15788C12.3491 1.74655 10.4349 0.953674 8.43903 0.953674V3.46222ZM2.16766 16.0049H10.9476V13.4964H2.16766V16.0049ZM10.9476 26.0391H2.16766V28.5477H10.9476V26.0391ZM3.42194 27.2934V14.7507H0.913391V27.2934H3.42194ZM15.9647 21.022C15.9647 22.3527 15.4361 23.6288 14.4952 24.5697C13.5543 25.5105 12.2782 26.0391 10.9476 26.0391V28.5477C12.9435 28.5477 14.8577 27.7548 16.269 26.3435C17.6803 24.9321 18.4732 23.018 18.4732 21.022H15.9647ZM10.9476 16.0049C12.2782 16.0049 13.5543 16.5335 14.4952 17.4744C15.4361 18.4153 15.9647 19.6914 15.9647 21.022H18.4732C18.4732 19.0261 17.6803 17.1119 16.269 15.7006C14.8577 14.2893 12.9435 13.4964 10.9476 13.4964V16.0049ZM22.236 21.022H37.2873V18.5135H22.236V21.022ZM23.4903 5.97077H36.033V3.46222H23.4903V5.97077Z" fill="#334F78"/>
</svg>
