<svg width="23" height="24" viewBox="0 0 23 24" fill="none" xmlns="http://www.w3.org/2000/svg">
<path d="M2.28571 7.07751C2.28571 6.41447 2.5491 5.77859 3.01794 5.30975C3.48678 4.84091 4.12266 4.57751 4.78571 4.57751H13.5357C14.1987 4.57751 14.8346 4.84091 15.3035 5.30975C15.7723 5.77859 16.0357 6.41447 16.0357 7.07751V12.0775C16.0357 12.7406 15.7723 13.3764 15.3035 13.8453C14.8346 14.3141 14.1987 14.5775 13.5357 14.5775H11.0357L7.82479 17.7884C7.62586 17.9874 7.28571 17.8465 7.28571 17.5651V14.5775H4.78571C4.12266 14.5775 3.48678 14.3141 3.01794 13.8453C2.5491 13.3764 2.28571 12.7406 2.28571 12.0775V7.07751Z" fill="#C0EEEE"/>
<path d="M18.5357 9.57751V12.0775C18.5357 13.4036 18.0089 14.6754 17.0712 15.613C16.1336 16.5507 14.8618 17.0775 13.5357 17.0775H12.0707L9.86321 19.2863C10.2132 19.4725 10.612 19.5775 11.0357 19.5775H13.5357L16.7466 22.7884C16.9456 22.9874 17.2857 22.8465 17.2857 22.5651V19.5775H19.7857C20.4487 19.5775 21.0846 19.3141 21.5535 18.8453C22.0223 18.3764 22.2857 17.7406 22.2857 17.0775V12.0775C22.2857 11.4145 22.0223 10.7786 21.5535 10.3097C21.0846 9.84091 20.4487 9.57751 19.7857 9.57751H18.5357Z" fill="#C0EEEE"/>
<path d="M15.2857 5.57751H17.2857C17.8161 5.57751 18.3248 5.78823 18.6999 6.1633C19.075 6.53837 19.2857 7.04708 19.2857 7.57751V13.5775C19.2857 14.1079 19.075 14.6167 18.6999 14.9917C18.3248 15.3668 17.8161 15.5775 17.2857 15.5775H15.2857V19.5775L11.2857 15.5775H7.28571C7.02303 15.5778 6.7629 15.5262 6.52024 15.4256C6.27758 15.325 6.05718 15.1775 5.87171 14.9915M5.87171 14.9915L9.28571 11.5775H13.2857C13.8161 11.5775 14.3248 11.3668 14.6999 10.9917C15.075 10.6167 15.2857 10.1079 15.2857 9.57751V3.57751C15.2857 3.04708 15.075 2.53837 14.6999 2.1633C14.3248 1.78823 13.8161 1.57751 13.2857 1.57751H3.28571C2.75527 1.57751 2.24656 1.78823 1.87149 2.1633C1.49642 2.53837 1.28571 3.04708 1.28571 3.57751V9.57751C1.28571 10.1079 1.49642 10.6167 1.87149 10.9917C2.24656 11.3668 2.75527 11.5775 3.28571 11.5775H5.28571V15.5775L5.87171 14.9915Z" stroke="#334F78" stroke-width="2" stroke-linecap="round" stroke-linejoin="round"/>
</svg>
