<svg width="15" height="16" viewBox="0 0 15 16" fill="none" xmlns="http://www.w3.org/2000/svg">
<path d="M9.66667 5.83333H13C13.5523 5.83333 14 6.28105 14 6.83333V13.5C14 14.0523 13.5523 14.5 13 14.5H6.33333C5.78105 14.5 5.33333 14.0523 5.33333 13.5V10.1667M9.66667 5.83333V9.16667C9.66667 9.71895 9.21895 10.1667 8.66667 10.1667H5.33333M9.66667 5.83333V2.5C9.66667 1.94772 9.21895 1.5 8.66667 1.5H2C1.44772 1.5 1 1.94772 1 2.5V9.16667C1 9.71895 1.44772 10.1667 2 10.1667H5.33333" stroke="#334F78" stroke-width="2"/>
</svg>
