<svg width="30" height="29" viewBox="0 0 30 29" fill="none" xmlns="http://www.w3.org/2000/svg">
<path d="M26.4398 8.37916C26.4704 8.35927 26.4962 8.33288 26.5155 8.30186C26.5348 8.27085 26.547 8.23597 26.5512 8.1997C26.5555 8.16344 26.5517 8.12669 26.5402 8.09205C26.5286 8.05741 26.5096 8.02575 26.4844 7.99931C25.3249 6.77911 23.9289 5.80793 22.3817 5.14499C20.8345 4.48206 19.1685 4.14128 17.4852 4.14344C16.5458 4.14344 15.6306 4.24797 14.7511 4.44554C14.7099 4.45491 14.6718 4.47458 14.6402 4.50269C14.6087 4.53081 14.5848 4.56646 14.5708 4.60631C14.5568 4.64616 14.5531 4.68891 14.5601 4.73057C14.5671 4.77223 14.5846 4.81143 14.6109 4.84451C16.3108 7.04032 17.8385 9.36415 19.1805 11.7953C19.2102 11.8486 19.2581 11.8895 19.3154 11.9106C19.3727 11.9316 19.4357 11.9314 19.4928 11.91C21.9327 10.9953 24.2628 9.81105 26.4398 8.37916ZM5.60153 14.0986C5.56501 14.0972 5.52924 14.0879 5.49676 14.0711C5.46428 14.0544 5.43589 14.0307 5.41362 14.0017C5.39135 13.9727 5.37573 13.9392 5.36789 13.9035C5.36005 13.8678 5.36018 13.8308 5.36826 13.7952C5.79436 11.9431 6.63871 10.213 7.83666 8.73756C9.0346 7.26211 10.5544 6.08042 12.2795 5.28299C12.3304 5.25963 12.3877 5.25396 12.4422 5.2669C12.4967 5.27983 12.5453 5.31063 12.5803 5.35438C14.3366 7.54915 15.9121 9.88263 17.2915 12.3319C17.3705 12.4721 17.2979 12.6506 17.1424 12.6977C13.4 13.8028 9.49964 14.2753 5.60153 14.0986ZM8.30764 24.4948C8.28455 24.5243 8.25517 24.5483 8.22164 24.565C8.18811 24.5818 8.15127 24.5908 8.1138 24.5916C8.07633 24.5923 8.03916 24.5847 8.005 24.5693C7.97084 24.5538 7.94055 24.531 7.91632 24.5024C5.99214 22.1883 4.97708 19.2523 5.06107 16.2438C5.06236 16.2102 5.07036 16.1772 5.08459 16.1468C5.09882 16.1163 5.119 16.089 5.14394 16.0664C5.16887 16.0439 5.19807 16.0265 5.22981 16.0154C5.26154 16.0043 5.29518 15.9996 5.32875 16.0017C5.93804 16.0297 6.55243 16.045 7.16809 16.045C10.9921 16.045 14.6797 15.4663 18.1506 14.3905C18.2081 14.3725 18.2701 14.3754 18.3256 14.3987C18.3811 14.422 18.4266 14.4643 18.454 14.5179C18.8466 15.2993 19.2188 16.0922 19.5719 16.8939C19.5867 16.9279 19.594 16.9647 19.5932 17.0018C19.5924 17.0388 19.5836 17.0753 19.5674 17.1086C19.5511 17.1419 19.5278 17.1713 19.4991 17.1948C19.4704 17.2182 19.437 17.2352 19.4011 17.2445C15.0253 18.4178 11.1387 20.958 8.30764 24.4948ZM22.9306 27.5361C22.9418 27.591 22.9343 27.648 22.9094 27.6981C22.8844 27.7482 22.8434 27.7885 22.7929 27.8127C21.1335 28.5968 19.3206 29.0021 17.4852 28.9994C14.6433 29.0036 11.8865 28.0296 9.67791 26.2411C9.62729 26.1999 9.59491 26.1404 9.58776 26.0755C9.58061 26.0107 9.59925 25.9456 9.63967 25.8943C12.2952 22.4833 16.0168 20.06 20.2105 19.0111C20.2699 18.9961 20.3328 19.0034 20.3873 19.0316C20.4418 19.0597 20.4841 19.1069 20.5062 19.1641C21.5491 21.8814 22.3602 24.682 22.9306 27.5361ZM29.434 18.9755C29.4971 18.9906 29.5519 19.03 29.5864 19.085C29.621 19.14 29.6326 19.2064 29.6188 19.2699C28.9817 22.1317 27.3537 24.6762 25.0223 26.4539C24.9887 26.4793 24.9491 26.4958 24.9074 26.5017C24.8657 26.5077 24.8231 26.5031 24.7837 26.4882C24.7442 26.4733 24.7092 26.4487 24.6818 26.4166C24.6545 26.3845 24.6357 26.3461 24.6272 26.3048C24.0814 23.79 23.3546 21.318 22.4526 18.9079C22.439 18.872 22.4337 18.8335 22.4372 18.7953C22.4407 18.757 22.4528 18.7201 22.4728 18.6873C22.4927 18.6545 22.5198 18.6266 22.5521 18.6059C22.5844 18.5851 22.621 18.572 22.6591 18.5676C24.9239 18.3076 27.2167 18.4456 29.434 18.9755ZM27.6481 9.87307C27.676 9.85432 27.7073 9.84132 27.7402 9.83482C27.7732 9.82833 27.8071 9.82846 27.8399 9.83523C27.8728 9.842 27.904 9.85525 27.9317 9.87423C27.9594 9.8932 27.983 9.9175 28.0012 9.94572C29.2974 11.9973 29.9614 14.3849 29.9107 16.8111C29.9096 16.8486 29.9002 16.8855 29.8831 16.9189C29.866 16.9524 29.8417 16.9816 29.8119 17.0046C29.7822 17.0275 29.7477 17.0435 29.711 17.0515C29.6743 17.0595 29.6363 17.0592 29.5997 17.0507C27.0405 16.4741 24.3971 16.3725 21.8013 16.7512C21.7451 16.7594 21.6878 16.7489 21.6382 16.7213C21.5887 16.6936 21.5496 16.6503 21.5272 16.5982C21.1445 15.7038 20.7373 14.8202 20.3061 13.9482C20.2904 13.9161 20.2817 13.8811 20.2803 13.8455C20.2788 13.8098 20.2849 13.7743 20.2979 13.7411C20.311 13.7079 20.3308 13.6778 20.3561 13.6526C20.3815 13.6275 20.4117 13.6079 20.445 13.5951C22.9943 12.6149 25.4086 11.3632 27.6481 9.87307Z" fill="#C0EEEE"/>
<path fill-rule="evenodd" clip-rule="evenodd" d="M14.3777 0.000549316C6.94539 0.000549316 0.913391 6.03255 0.913391 13.4648C0.913391 20.8971 6.94539 26.9291 14.3777 26.9291C21.7965 26.9291 27.842 20.8971 27.842 13.4648C27.842 6.03255 21.7965 0.000549316 14.3777 0.000549316ZM23.2708 6.20758C24.9284 8.22601 25.8459 10.7505 25.8711 13.3622C25.4908 13.2898 21.6938 12.5156 17.8683 12.997C17.7808 12.8085 17.7067 12.6031 17.6192 12.3995C17.3853 11.8441 17.1227 11.2752 16.8602 10.7333C21.0947 9.01152 23.0234 6.52905 23.2725 6.2059L23.2708 6.20758ZM14.3777 1.98653C17.2977 1.98653 19.9704 3.0805 22.0018 4.87799C21.7965 5.17084 20.0579 7.49174 15.9698 9.02499C14.0848 5.56467 11.9979 2.73043 11.6764 2.29284C12.5619 2.0861 13.4684 1.9833 14.3777 1.98653ZM9.48509 3.06704C11.0262 5.20289 12.4499 7.42105 13.7499 9.71167C8.37597 11.1422 3.62981 11.1136 3.11817 11.1136C3.48819 9.37291 4.25532 7.7412 5.35972 6.34573C6.46412 4.95027 7.87595 3.82709 9.48509 3.06704ZM2.87076 13.4817V13.1282C3.36726 13.1451 8.94652 13.2174 14.6857 11.494C15.0206 12.1352 15.3269 12.7933 15.6198 13.4497L15.1653 13.581C9.23769 15.4946 6.08368 20.7221 5.81944 21.1614C3.92068 19.0535 2.87018 16.3169 2.87076 13.48V13.4817ZM14.3777 24.9718C11.8221 24.9757 9.33898 24.1224 7.32576 22.5482C7.52772 22.1241 9.86546 17.627 16.3485 15.3633C16.3788 15.3482 16.3923 15.3482 16.4226 15.3347C17.5155 18.1561 18.3367 21.0754 18.8747 24.0528C17.4543 24.6632 15.9237 24.9759 14.3777 24.9718ZM20.79 23.0009C20.6722 22.2991 20.0579 18.9414 18.555 14.8079C22.1617 14.239 25.3157 15.1731 25.7096 15.3044C25.4643 16.8573 24.9004 18.3426 24.0535 19.6671C23.2066 20.9916 22.095 22.1267 20.7884 23.0009H20.79Z" fill="#334F78"/>
</svg>
