<svg width="20" height="18" viewBox="0 0 20 18" fill="none" xmlns="http://www.w3.org/2000/svg">
<path fill-rule="evenodd" clip-rule="evenodd" d="M13.6786 3.32752L9.60714 5.87214V17.5775L13.6786 14.8578V3.32752ZM5.23748 3.53819C5.09513 3.39588 4.91379 3.29898 4.71637 3.25972C4.51896 3.22046 4.31433 3.24062 4.12837 3.31764C3.94241 3.39466 3.78346 3.52509 3.67161 3.69244C3.55976 3.85978 3.50004 4.05653 3.5 4.25781V14.4364C3.50006 14.7063 3.60733 14.9652 3.79823 15.156L7.57143 17.5775V5.87214L5.23748 3.53819ZM19.4875 5.5739L15.7143 3.32752V14.8578L18.0482 17.1917C18.1906 17.334 18.3719 17.4309 18.5693 17.4702C18.7668 17.5094 18.9714 17.4893 19.1573 17.4123C19.3433 17.3352 19.5023 17.2048 19.6141 17.0375C19.726 16.8701 19.7857 16.6734 19.7857 16.4721V6.29353C19.7857 6.0236 19.6784 5.76474 19.4875 5.5739Z" fill="#C0EEEE"/>
<path d="M6.92856 15.2402L2.25971 12.9053C2.11735 12.8342 1.99761 12.7248 1.91389 12.5895C1.83018 12.4541 1.78579 12.2982 1.78571 12.139V2.91274C1.78578 2.76669 1.82318 2.62308 1.89434 2.49554C1.96551 2.368 2.06808 2.26076 2.19233 2.184C2.31658 2.10723 2.45838 2.06349 2.60428 2.05692C2.75018 2.05035 2.89535 2.08117 3.02599 2.14645L6.92856 4.09731M6.92856 15.2402V4.09731M6.92856 15.2402L12.0714 12.6687M6.92856 4.09731L12.0714 1.52588M12.0714 12.6687L15.974 14.6196C16.1046 14.6849 16.2498 14.7157 16.3957 14.7091C16.5416 14.7026 16.6834 14.6588 16.8077 14.582C16.9319 14.5053 17.0345 14.398 17.1056 14.2705C17.1768 14.143 17.2142 13.9994 17.2143 13.8533V4.62702C17.2142 4.46788 17.1698 4.31191 17.0861 4.17657C17.0024 4.04123 16.8826 3.93187 16.7403 3.86074L12.0714 1.52588M12.0714 12.6687V1.52588" stroke="#334F78" stroke-width="1.71429" stroke-linecap="round" stroke-linejoin="round"/>
</svg>
