<svg width="23" height="31" viewBox="0 0 23 31" fill="none" xmlns="http://www.w3.org/2000/svg">
<path d="M13.6257 17.001C13.6257 10.7806 22.9594 10.7806 22.9594 17.001C22.9594 23.2214 13.6257 23.2214 13.6257 17.001ZM4.29201 26.3347C4.29167 25.7218 4.41213 25.1148 4.64652 24.5485C4.88091 23.9822 5.22462 23.4676 5.658 23.0343C6.09139 22.6009 6.60595 22.2572 7.17226 22.0228C7.73857 21.7884 8.34553 21.6679 8.95842 21.6683H13.6248V26.3347C13.6248 32.5551 4.29114 32.5551 4.29114 26.3347H4.29201ZM13.6257 3.00088V12.3346H18.2921C24.5125 12.3346 24.5125 3.00088 18.2921 3.00088H13.6257ZM4.29201 7.66729C4.29167 8.28019 4.41213 8.88714 4.64652 9.45345C4.88091 10.0198 5.22462 10.5343 5.658 10.9677C6.09139 11.4011 6.60595 11.7448 7.17226 11.9792C7.73857 12.2136 8.34553 12.334 8.95842 12.3337H13.6248V3H8.95842C8.34553 2.99966 7.73857 3.12012 7.17226 3.35451C6.60595 3.58889 6.09139 3.93261 5.658 4.36599C5.22462 4.79938 4.88091 5.31393 4.64652 5.88025C4.41213 6.44656 4.29167 7.05351 4.29201 7.66641V7.66729ZM4.29201 17.001C4.29167 17.6139 4.41213 18.2208 4.64652 18.7872C4.88091 19.3535 5.22462 19.868 5.658 20.3014C6.09139 20.7348 6.60595 21.0785 7.17226 21.3129C7.73857 21.5473 8.34553 21.6686 8.95842 21.6683H13.6248V12.3337H8.95842C8.34553 12.3334 7.73857 12.4538 7.17226 12.6882C6.60595 12.9226 6.09139 13.2663 5.658 13.6997C5.22462 14.1331 4.88091 14.6476 4.64652 15.2139C4.41213 15.7803 4.29167 16.3872 4.29201 17.0001V17.001Z" fill="#C0EEEE"/>
<path fill-rule="evenodd" clip-rule="evenodd" d="M11.3249 18.7887C12.2803 19.555 13.4637 19.9816 14.6883 20.001C15.913 20.0204 17.1093 19.6316 18.0885 18.8959C19.0678 18.1603 19.7743 17.1196 20.0967 15.9379C20.419 14.7563 20.3389 13.501 19.8689 12.3699C19.4756 11.4199 18.8245 10.5987 17.9891 9.99912C18.7013 9.48865 19.2815 8.81574 19.6815 8.0362C20.0816 7.25667 20.2901 6.39297 20.2896 5.51676C20.2896 4.05362 19.7084 2.65041 18.6738 1.61582C17.6392 0.581228 16.236 4.15728e-09 14.7728 4.15728e-09H5.80811C4.64026 -4.53203e-05 3.50253 0.37052 2.55872 1.05834C1.61491 1.74616 0.913731 2.71575 0.556131 3.8275C0.198531 4.93925 0.202964 6.1358 0.56879 7.24487C0.934617 8.35394 1.64296 9.31831 2.59184 9.99912C1.87997 10.5099 1.29999 11.1828 0.899901 11.9623C0.499817 12.7418 0.291138 13.6053 0.291138 14.4815C0.291138 15.3576 0.499817 16.2212 0.899901 17.0007C1.29999 17.7801 1.87997 18.4531 2.59184 18.9638C1.82382 19.515 1.21029 20.2542 0.810107 21.1106C0.409922 21.967 0.236506 22.9118 0.306493 23.8545C0.376481 24.7972 0.687524 25.7061 1.20979 26.494C1.73205 27.2819 2.44801 27.9224 3.28899 28.3541C4.12997 28.7857 5.06776 28.994 6.0124 28.959C6.95704 28.924 7.87684 28.6469 8.68356 28.1542C9.49029 27.6615 10.1569 26.9697 10.6194 26.1453C11.0819 25.3209 11.3248 24.3915 11.3249 23.4462V18.7887ZM5.80811 2.06878C4.89365 2.06878 4.01664 2.43205 3.37002 3.07867C2.7234 3.72529 2.36014 4.6023 2.36014 5.51676C2.36014 6.43122 2.7234 7.30822 3.37002 7.95484C4.01664 8.60146 4.89365 8.96473 5.80811 8.96473H9.25608V2.06878H5.80811ZM9.25608 19.9982H5.80811C5.12616 19.9982 4.45953 20.2005 3.89252 20.5793C3.3255 20.9582 2.88357 21.4967 2.6226 22.1267C2.36163 22.7568 2.29335 23.45 2.42639 24.1189C2.55943 24.7877 2.88782 25.4021 3.37002 25.8843C3.85223 26.3665 4.4666 26.6949 5.13544 26.8279C5.80428 26.961 6.49756 26.8927 7.12759 26.6317C7.75763 26.3708 8.29612 25.9288 8.67499 25.3618C9.05386 24.7948 9.25608 24.1282 9.25608 23.4462V19.9982ZM5.80811 11.0335C4.89365 11.0335 4.01664 11.3968 3.37002 12.0434C2.7234 12.69 2.36014 13.567 2.36014 14.4815C2.36014 15.3959 2.7234 16.2729 3.37002 16.9196C4.01664 17.5662 4.89365 17.9295 5.80811 17.9295H9.25608V11.0335H5.80811ZM11.3249 14.4815C11.3249 15.3961 11.6882 16.2733 12.335 16.9201C12.9817 17.5668 13.8589 17.9301 14.7735 17.9301C15.6882 17.9301 16.5653 17.5668 17.2121 16.9201C17.8589 16.2733 18.2222 15.3961 18.2222 14.4815C18.2222 13.5668 17.8589 12.6897 17.2121 12.0429C16.5653 11.3962 15.6882 11.0328 14.7735 11.0328C13.8589 11.0328 12.9817 11.3962 12.335 12.0429C11.6882 12.6897 11.3249 13.5668 11.3249 14.4815ZM14.7728 8.96473C15.6873 8.96473 16.5643 8.60146 17.2109 7.95484C17.8575 7.30822 18.2208 6.43122 18.2208 5.51676C18.2208 4.6023 17.8575 3.72529 17.2109 3.07867C16.5643 2.43205 15.6873 2.06878 14.7728 2.06878H11.3249V8.96473H14.7728Z" fill="#334F78"/>
</svg>
