<svg width="28" height="32" viewBox="0 0 28 32" fill="none" xmlns="http://www.w3.org/2000/svg">
<path d="M12.3038 29.3589L12.315 30.9184C15.727 32.3484 17.6414 32.3247 21.0536 30.9156V25.4362C21.0536 23.9522 20.656 22.8659 19.8608 22.1799C20.6541 22.1026 21.4404 21.965 22.2128 21.7683C22.966 21.5608 23.6903 21.2598 24.3687 20.8723C25.0791 20.4855 25.7099 19.9677 26.2278 19.3464C26.7234 18.7416 27.1294 17.9408 27.443 16.9384C27.7566 15.9361 27.9134 14.7853 27.9134 13.4861C27.9134 11.6354 27.3086 10.0618 26.099 8.75986C26.6674 7.3711 26.6058 5.81155 25.9171 4.08399C25.4887 3.944 24.8699 4.028 24.0579 4.33599C23.2487 4.64118 22.5459 4.97997 21.9468 5.34396L21.0788 5.89554C19.6564 5.49515 18.1865 5.29916 16.6745 5.29916C15.1862 5.29475 13.7043 5.49448 12.2702 5.89274C12.0238 5.72475 11.7019 5.52035 11.2959 5.27676C10.8927 5.03037 10.2515 4.73638 9.38072 4.39199C8.50994 4.04759 7.85196 3.944 7.40677 4.08399C6.73479 5.81155 6.68159 7.3711 7.24718 8.76266C6.04041 10.0618 5.43563 11.6382 5.43563 13.4861C5.41565 14.6503 5.57333 15.8106 5.90322 16.9272C6.21961 17.9212 6.62 18.722 7.10718 19.3352C7.61672 19.9627 8.2446 20.484 8.95513 20.8695C9.63361 21.2569 10.3579 21.5579 11.1111 21.7655C11.8825 21.963 12.6678 22.1015 13.4602 22.1799C12.8498 22.7287 12.4774 23.5182 12.3402 24.5402C12.0109 24.6968 11.6641 24.8134 11.3071 24.8874C10.9403 24.963 10.5035 24.9994 9.9995 24.9994C9.4613 24.9885 8.93866 24.8169 8.49874 24.5066C8.00036 24.179 7.57757 23.7002 7.22478 23.0731C6.93359 22.5831 6.5612 22.1883 6.11321 21.8803C5.66242 21.5751 5.28443 21.3903 4.97644 21.3315L4.51725 21.2615C4.29013 21.2447 4.06219 21.2802 3.85087 21.3651C3.73048 21.4323 3.69408 21.5219 3.73888 21.6283C3.79157 21.7445 3.86142 21.8521 3.94607 21.9475C4.0333 22.0525 4.13296 22.1465 4.24286 22.2275L4.40246 22.3395C4.80155 22.5453 5.1446 22.8451 5.40203 23.2131C5.68876 23.5719 5.93129 23.9639 6.12441 24.3806L6.354 24.9098C6.53938 25.4706 6.89092 25.9618 7.36198 26.3182C7.81133 26.6666 8.33736 26.9027 8.89633 27.007C9.42306 27.1037 9.95683 27.1571 10.4923 27.1665C10.9185 27.1807 11.345 27.1545 11.7663 27.0881L12.2926 26.9957C12.2926 27.5753 12.2954 28.3649 12.3038 29.3589Z" fill="#C0EEEE"/>
<path d="M1.95941 19.2005C2.58127 19.2765 3.04249 19.5624 3.34306 20.0583C3.79391 20.8019 5.46986 23.5607 7.373 23.5607C8.6418 23.5607 9.6051 23.5607 10.263 23.5607M18.1096 18.6892C19.7725 18.3436 21.2815 17.7444 22.4545 16.8646C24.4576 15.3623 25.4814 13.0419 25.4814 10.7494C25.4814 9.14115 24.8717 7.63975 23.8161 6.36804C23.2279 5.65941 24.9484 0.372074 23.4198 1.08417C21.8912 1.79625 19.6499 3.37244 18.475 3.02459C17.2172 2.65216 15.8466 2.44754 14.4122 2.44754C13.1664 2.44754 11.9686 2.6019 10.8511 2.88651C9.22674 3.3002 7.67325 1.75572 6.11035 1.08417C4.54743 0.412608 5.40026 5.88128 4.93605 6.45632C3.92501 7.709 3.34306 9.17823 3.34306 10.7494C3.34306 13.0419 4.58202 15.3623 6.58515 16.8646C7.91954 17.8654 9.59299 18.5032 11.4651 18.8175C10.6637 19.6996 10.2627 20.5373 10.2627 21.3305C10.2627 22.1238 10.2627 24.1338 10.2627 27.3606C13.772 29.4297 15.7396 29.7078 19.2489 27.3607C19.2489 24.1629 19.2489 22.1675 19.2489 21.3742C19.2489 20.581 18.869 19.686 18.1096 18.6892Z" stroke="#334F78" stroke-width="2" stroke-linecap="round"/>
</svg>
