<svg width="21" height="20" viewBox="0 0 21 20" fill="none" xmlns="http://www.w3.org/2000/svg">
<path d="M20.0357 10.25V18.75C20.0357 19.0152 19.9303 19.2696 19.7428 19.4571C19.5553 19.6446 19.3009 19.75 19.0357 19.75H15.0357H9.03571H5.03571C4.77049 19.75 4.51614 19.6446 4.3286 19.4571C4.14106 19.2696 4.03571 19.0152 4.03571 18.75V10.25C4.03571 10.0948 4.07185 9.94164 4.14128 9.80279C4.21071 9.66393 4.31151 9.54315 4.43571 9.45L11.4357 4.2C11.6088 4.07018 11.8193 4 12.0357 4C12.2521 4 12.4626 4.07018 12.6357 4.2L19.6357 9.45C19.7599 9.54315 19.8607 9.66393 19.9301 9.80279C19.9996 9.94164 20.0357 10.0948 20.0357 10.25Z" fill="#C0EEEE"/>
<path d="M17.5357 7.25V15.75C17.5357 16.0152 17.4303 16.2696 17.2428 16.4571C17.0553 16.6446 16.8009 16.75 16.5357 16.75H12.5357H6.53571H2.53571C2.27049 16.75 2.01614 16.6446 1.8286 16.4571C1.64106 16.2696 1.53571 16.0152 1.53571 15.75V7.25C1.53571 7.09475 1.57185 6.94164 1.64128 6.80279C1.71071 6.66393 1.81151 6.54315 1.93571 6.45L8.93571 1.2C9.1088 1.07018 9.31934 1 9.53571 1C9.75208 1 9.96261 1.07018 10.1357 1.2L17.1357 6.45C17.2599 6.54315 17.3607 6.66393 17.4301 6.80279C17.4996 6.94164 17.5357 7.09475 17.5357 7.25Z" stroke="#334F78" stroke-width="1.5" stroke-linecap="round" stroke-linejoin="round"/>
</svg>
