<svg width="32" height="32" viewBox="0 0 32 32" fill="none" xmlns="http://www.w3.org/2000/svg">
<path d="M19.8306 4.33571C20.817 4.33192 21.8034 4.34184 22.7895 4.36545L23.0518 4.37491C23.3546 4.38572 23.6533 4.39924 24.0142 4.41546C25.4524 4.48305 26.4338 4.71013 27.2948 5.04401C28.187 5.38735 28.9385 5.85234 29.6901 6.60389C30.3772 7.27922 30.9091 8.09612 31.2486 8.99779C31.5825 9.85883 31.8096 10.8415 31.8771 12.2798C31.8934 12.6393 31.9069 12.9394 31.9177 13.2422L31.9258 13.5044C31.9498 14.4901 31.9602 15.476 31.9569 16.462L31.9582 17.4704V19.2411C31.9616 20.2275 31.9512 21.2139 31.9272 22.2L31.919 22.4623C31.9082 22.765 31.8947 23.0638 31.8785 23.4247C31.8109 24.8629 31.5811 25.8443 31.2486 26.7053C30.9102 27.6079 30.3782 28.4255 29.6901 29.1005C29.0142 29.7876 28.1968 30.3195 27.2948 30.6591C26.4338 30.993 25.4524 31.22 24.0142 31.2876C23.6533 31.3038 23.3546 31.3174 23.0518 31.3282L22.7895 31.3363C21.8034 31.3603 20.817 31.3707 19.8306 31.3674L18.8222 31.3687H17.0528C16.0664 31.3721 15.08 31.3617 14.0939 31.3376L13.8317 31.3295C13.5108 31.3179 13.19 31.3044 12.8693 31.289C11.431 31.2214 10.4497 30.9916 9.5873 30.6591C8.68528 30.3203 7.86824 29.7883 7.19341 29.1005C6.50545 28.4251 5.97311 27.6077 5.63353 26.7053C5.29965 25.8443 5.07256 24.8629 5.00498 23.4247C4.98992 23.1039 4.97641 22.7831 4.96443 22.4623L4.95767 22.2C4.93275 21.2139 4.92148 20.2275 4.92388 19.2411V16.462C4.9201 15.476 4.93002 14.4901 4.95361 13.5044L4.96308 13.2422C4.97389 12.9394 4.98741 12.6393 5.00363 12.2798C5.07121 10.8402 5.2983 9.86018 5.63218 8.99779C5.97196 8.09568 6.50534 7.279 7.19476 6.60524C7.86913 5.91688 8.68566 5.38406 9.5873 5.04401C10.4497 4.71013 11.4297 4.48305 12.8693 4.41546L13.8317 4.37491L14.0939 4.36815C15.0796 4.34324 16.0655 4.33198 17.0515 4.33436L19.8306 4.33571ZM18.4411 11.0943C17.5456 11.0816 16.6565 11.2471 15.8255 11.581C14.9944 11.9149 14.2381 12.4107 13.6003 13.0395C12.9626 13.6683 12.4562 14.4176 12.1105 15.2438C11.7649 16.07 11.5869 16.9566 11.5869 17.8522C11.5869 18.7478 11.7649 19.6345 12.1105 20.4607C12.4562 21.2869 12.9626 22.0362 13.6003 22.6649C14.2381 23.2937 14.9944 23.7895 15.8255 24.1234C16.6565 24.4574 17.5456 24.6228 18.4411 24.6101C20.2336 24.6101 21.9526 23.8981 23.2201 22.6306C24.4876 21.3631 25.1997 19.644 25.1997 17.8515C25.1997 16.0591 24.4876 14.34 23.2201 13.0725C21.9526 11.805 20.2336 11.0943 18.4411 11.0943ZM18.4411 13.7977C18.9797 13.7878 19.515 13.8853 20.0155 14.0846C20.5161 14.2838 20.9719 14.5808 21.3564 14.9582C21.7409 15.3357 22.0463 15.7859 22.2549 16.2827C22.4634 16.7794 22.5708 17.3128 22.5709 17.8515C22.571 18.3903 22.4637 18.9237 22.2554 19.4205C22.047 19.9173 21.7417 20.3677 21.3574 20.7452C20.973 21.1227 20.5173 21.4199 20.0168 21.6193C19.5163 21.8188 18.9811 21.9164 18.4424 21.9067C17.3669 21.9067 16.3355 21.4795 15.575 20.719C14.8145 19.9585 14.3873 18.927 14.3873 17.8515C14.3873 16.776 14.8145 15.7446 15.575 14.9841C16.3355 14.2236 17.3669 13.7964 18.4424 13.7964L18.4411 13.7977ZM25.5376 9.06672C25.1015 9.08418 24.6891 9.26968 24.3867 9.58439C24.0844 9.8991 23.9155 10.3186 23.9155 10.755C23.9155 11.1914 24.0844 11.6109 24.3867 11.9256C24.6891 12.2404 25.1015 12.4259 25.5376 12.4433C25.9857 12.4433 26.4155 12.2653 26.7323 11.9484C27.0492 11.6316 27.2272 11.2018 27.2272 10.7537C27.2272 10.3055 27.0492 9.87578 26.7323 9.55891C26.4155 9.24204 25.9857 9.06402 25.5376 9.06402V9.06672Z" fill="#C0EEEE"/>
<path d="M14.9134 20.4084L14.9134 21.4917L14.9134 20.4084ZM20.6912 14.6306L21.7745 14.6306L20.6912 14.6306ZM14.9134 8.85284L14.9134 7.7695L14.9134 8.85284ZM9.13561 14.6306L8.05228 14.6306L9.13561 14.6306ZM9.13561 1.63062V0.547282V1.63062ZM22.0562 5.9719C21.6538 6.41461 21.6864 7.09977 22.1291 7.50223C22.5718 7.90469 23.257 7.87205 23.6594 7.42933L22.0562 5.9719ZM23.6739 7.41345C24.0764 6.97073 24.0437 6.28558 23.601 5.88312C23.1583 5.48066 22.4731 5.51329 22.0707 5.95601L23.6739 7.41345ZM14.9134 21.4917C16.7331 21.4917 18.4782 20.7689 19.7649 19.4822L18.2329 17.9501C17.3525 18.8305 16.1584 19.3251 14.9134 19.3251L14.9134 21.4917ZM19.7649 19.4822C21.0516 18.1954 21.7745 16.4503 21.7745 14.6306L19.6078 14.6306C19.6078 15.8757 19.1132 17.0697 18.2329 17.9501L19.7649 19.4822ZM21.7745 14.6306C21.7745 12.8109 21.0516 11.0658 19.7649 9.77908L18.2329 11.3111C19.1132 12.1915 19.6078 13.3856 19.6078 14.6306L21.7745 14.6306ZM19.7649 9.77908C18.4782 8.49237 16.7331 7.7695 14.9134 7.7695L14.9134 9.93617C16.1584 9.93617 17.3525 10.4308 18.2329 11.3111L19.7649 9.77908ZM14.9134 7.7695C13.0937 7.7695 11.3486 8.49237 10.0619 9.77908L11.5939 11.3111C12.4743 10.4308 13.6683 9.93617 14.9134 9.93617L14.9134 7.7695ZM10.0619 9.77908C8.77514 11.0658 8.05228 12.8109 8.05228 14.6306L10.2189 14.6306C10.2189 13.3856 10.7135 12.1915 11.5939 11.3111L10.0619 9.77908ZM8.05228 14.6306C8.05228 16.4503 8.77514 18.1954 10.0619 19.4822L11.5939 17.9501C10.7135 17.0697 10.2189 15.8757 10.2189 14.6306L8.05228 14.6306ZM10.0619 19.4822C11.3486 20.7689 13.0937 21.4917 14.9134 21.4917L14.9134 19.3251C13.6683 19.3251 12.4743 18.8305 11.5939 17.9501L10.0619 19.4822ZM2.99672 20.4084V8.85284H0.830058V20.4084H2.99672ZM2.99672 8.85284C2.99672 7.2247 3.6435 5.66325 4.79476 4.51199L3.2627 2.97992C1.70511 4.53752 0.830058 6.65007 0.830058 8.85284H2.99672ZM4.79476 4.51199C5.94603 3.36072 7.50748 2.71395 9.13561 2.71395V0.547282C6.93284 0.547282 4.82029 1.42233 3.2627 2.97992L4.79476 4.51199ZM9.13561 2.71395H20.6912V0.547282H9.13561V2.71395ZM20.6912 2.71395C22.3193 2.71395 23.8808 3.36072 25.032 4.51199L26.5641 2.97992C25.0065 1.42233 22.8939 0.547282 20.6912 0.547282V2.71395ZM25.032 4.51199C26.1833 5.66325 26.8301 7.2247 26.8301 8.85284H28.9967C28.9967 6.65007 28.1217 4.53752 26.5641 2.97992L25.032 4.51199ZM26.8301 8.85284V20.4084H28.9967V8.85284H26.8301ZM26.8301 20.4084C26.8301 22.0365 26.1833 23.598 25.032 24.7492L26.5641 26.2813C28.1217 24.7237 28.9967 22.6112 28.9967 20.4084H26.8301ZM25.032 24.7492C23.8808 25.9005 22.3193 26.5473 20.6912 26.5473V28.7139C22.8939 28.7139 25.0065 27.8389 26.5641 26.2813L25.032 24.7492ZM20.6912 26.5473H9.13561V28.7139H20.6912V26.5473ZM9.13561 26.5473C7.50748 26.5473 5.94603 25.9005 4.79476 24.7492L3.2627 26.2813C4.82029 27.8389 6.93284 28.7139 9.13561 28.7139V26.5473ZM4.79476 24.7492C3.6435 23.598 2.99672 22.0365 2.99672 20.4084H0.830058C0.830058 22.6112 1.70511 24.7237 3.2627 26.2813L4.79476 24.7492ZM23.6594 7.42933L23.6739 7.41345L22.0707 5.95601L22.0562 5.9719L23.6594 7.42933Z" fill="#334F78"/>
</svg>
