<svg width="16" height="16" viewBox="0 0 16 16" fill="none" xmlns="http://www.w3.org/2000/svg">
<mask id="path-1-outside-1_116_339" maskUnits="userSpaceOnUse" x="0.0725098" y="-0.0625" width="16" height="16" fill="black">
<rect fill="white" x="0.0725098" y="-0.0625" width="16" height="16"/>
<path fill-rule="evenodd" clip-rule="evenodd" d="M2.09764 1.96274C2.75402 1.30636 3.64426 0.937614 4.57252 0.937614H11.5725C12.5008 0.937614 13.391 1.30636 14.0474 1.96274C14.7038 2.61912 15.0725 3.50936 15.0725 4.43761V11.4376C15.0725 12.3659 14.7038 13.2561 14.0474 13.9125C13.391 14.5689 12.5008 14.9376 11.5725 14.9376H4.57252C3.64426 14.9376 2.75402 14.5689 2.09764 13.9125C1.44127 13.2561 1.07252 12.3659 1.07252 11.4376V4.43761C1.07252 3.50936 1.44127 2.61912 2.09764 1.96274ZM4.57252 2.33761C4.01556 2.33761 3.48142 2.55886 3.08759 2.95269C2.69377 3.34652 2.47252 3.88066 2.47252 4.43761V11.4376C2.47252 11.9946 2.69377 12.5287 3.08759 12.9225C3.48142 13.3164 4.01556 13.5376 4.57252 13.5376H11.5725C12.1295 13.5376 12.6636 13.3164 13.0574 12.9225C13.4513 12.5287 13.6725 11.9946 13.6725 11.4376V4.43761C13.6725 3.88066 13.4513 3.34652 13.0574 2.95269C12.6636 2.55886 12.1295 2.33761 11.5725 2.33761H4.57252ZM5.59764 5.46274C6.25402 4.80636 7.14426 4.43761 8.07252 4.43761C9.00077 4.43761 9.89101 4.80636 10.5474 5.46274C11.2038 6.11912 11.5725 7.00936 11.5725 7.93761C11.5725 8.86587 11.2038 9.75611 10.5474 10.4125C9.89101 11.0689 9.00077 11.4376 8.07252 11.4376C7.14426 11.4376 6.25402 11.0689 5.59764 10.4125C4.94127 9.75611 4.57252 8.86587 4.57252 7.93761C4.57252 7.00936 4.94127 6.11912 5.59764 5.46274ZM8.07252 5.83761C7.51556 5.83761 6.98142 6.05886 6.58759 6.45269C6.19377 6.84652 5.97252 7.38066 5.97252 7.93761C5.97252 8.49457 6.19377 9.02871 6.58759 9.42254C6.98142 9.81636 7.51556 10.0376 8.07252 10.0376C8.62947 10.0376 9.16362 9.81636 9.55744 9.42254C9.95127 9.02871 10.1725 8.49457 10.1725 7.93761C10.1725 7.38066 9.95127 6.84652 9.55744 6.45269C9.16362 6.05886 8.62947 5.83761 8.07252 5.83761ZM12.4175 4.58259C12.2862 4.71386 12.1082 4.78761 11.9225 4.78761C11.7369 4.78761 11.5588 4.71386 11.4275 4.58259C11.2963 4.45131 11.2225 4.27327 11.2225 4.08761C11.2225 3.90196 11.2963 3.72391 11.4275 3.59264C11.5588 3.46136 11.7369 3.38761 11.9225 3.38761C12.1082 3.38761 12.2862 3.46136 12.4175 3.59264C12.5488 3.72391 12.6225 3.90196 12.6225 4.08761C12.6225 4.27327 12.5488 4.45131 12.4175 4.58259Z"/>
</mask>
<path fill-rule="evenodd" clip-rule="evenodd" d="M2.09764 1.96274C2.75402 1.30636 3.64426 0.937614 4.57252 0.937614H11.5725C12.5008 0.937614 13.391 1.30636 14.0474 1.96274C14.7038 2.61912 15.0725 3.50936 15.0725 4.43761V11.4376C15.0725 12.3659 14.7038 13.2561 14.0474 13.9125C13.391 14.5689 12.5008 14.9376 11.5725 14.9376H4.57252C3.64426 14.9376 2.75402 14.5689 2.09764 13.9125C1.44127 13.2561 1.07252 12.3659 1.07252 11.4376V4.43761C1.07252 3.50936 1.44127 2.61912 2.09764 1.96274ZM4.57252 2.33761C4.01556 2.33761 3.48142 2.55886 3.08759 2.95269C2.69377 3.34652 2.47252 3.88066 2.47252 4.43761V11.4376C2.47252 11.9946 2.69377 12.5287 3.08759 12.9225C3.48142 13.3164 4.01556 13.5376 4.57252 13.5376H11.5725C12.1295 13.5376 12.6636 13.3164 13.0574 12.9225C13.4513 12.5287 13.6725 11.9946 13.6725 11.4376V4.43761C13.6725 3.88066 13.4513 3.34652 13.0574 2.95269C12.6636 2.55886 12.1295 2.33761 11.5725 2.33761H4.57252ZM5.59764 5.46274C6.25402 4.80636 7.14426 4.43761 8.07252 4.43761C9.00077 4.43761 9.89101 4.80636 10.5474 5.46274C11.2038 6.11912 11.5725 7.00936 11.5725 7.93761C11.5725 8.86587 11.2038 9.75611 10.5474 10.4125C9.89101 11.0689 9.00077 11.4376 8.07252 11.4376C7.14426 11.4376 6.25402 11.0689 5.59764 10.4125C4.94127 9.75611 4.57252 8.86587 4.57252 7.93761C4.57252 7.00936 4.94127 6.11912 5.59764 5.46274ZM8.07252 5.83761C7.51556 5.83761 6.98142 6.05886 6.58759 6.45269C6.19377 6.84652 5.97252 7.38066 5.97252 7.93761C5.97252 8.49457 6.19377 9.02871 6.58759 9.42254C6.98142 9.81636 7.51556 10.0376 8.07252 10.0376C8.62947 10.0376 9.16362 9.81636 9.55744 9.42254C9.95127 9.02871 10.1725 8.49457 10.1725 7.93761C10.1725 7.38066 9.95127 6.84652 9.55744 6.45269C9.16362 6.05886 8.62947 5.83761 8.07252 5.83761ZM12.4175 4.58259C12.2862 4.71386 12.1082 4.78761 11.9225 4.78761C11.7369 4.78761 11.5588 4.71386 11.4275 4.58259C11.2963 4.45131 11.2225 4.27327 11.2225 4.08761C11.2225 3.90196 11.2963 3.72391 11.4275 3.59264C11.5588 3.46136 11.7369 3.38761 11.9225 3.38761C12.1082 3.38761 12.2862 3.46136 12.4175 3.59264C12.5488 3.72391 12.6225 3.90196 12.6225 4.08761C12.6225 4.27327 12.5488 4.45131 12.4175 4.58259Z" fill="#334F78"/>
<path d="M2.09764 1.96274L1.95622 1.82132L2.09764 1.96274ZM14.0474 1.96274L13.906 2.10416V2.10416L14.0474 1.96274ZM2.09764 13.9125L2.23906 13.7711H2.23906L2.09764 13.9125ZM3.08759 12.9225L2.94617 13.064L3.08759 12.9225ZM13.0574 2.95269L13.1989 2.81127L13.0574 2.95269ZM5.59764 5.46274L5.73906 5.60416L5.59764 5.46274ZM10.5474 5.46274L10.406 5.60416L10.5474 5.46274ZM5.59764 10.4125L5.73906 10.2711L5.59764 10.4125ZM6.58759 6.45269L6.72901 6.59411L6.58759 6.45269ZM6.58759 9.42254L6.44617 9.56396L6.58759 9.42254ZM8.07252 10.0376L8.07252 10.2376H8.07252L8.07252 10.0376ZM9.55744 9.42254L9.69886 9.56396L9.55744 9.42254ZM10.1725 7.93761L10.3725 7.93761V7.93761L10.1725 7.93761ZM9.55744 6.45269L9.69886 6.31127L9.55744 6.45269ZM12.4175 4.58259L12.2761 4.44117V4.44117L12.4175 4.58259ZM12.4175 3.59264L12.2761 3.73406V3.73406L12.4175 3.59264ZM4.57252 0.737614C3.59122 0.737614 2.65011 1.12743 1.95622 1.82132L2.23906 2.10416C2.85793 1.48529 3.6973 1.13761 4.57252 1.13761V0.737614ZM11.5725 0.737614H4.57252V1.13761H11.5725V0.737614ZM14.1888 1.82132C13.4949 1.12743 12.5538 0.737614 11.5725 0.737614V1.13761C12.4477 1.13761 13.2871 1.48529 13.906 2.10416L14.1888 1.82132ZM15.2725 4.43761C15.2725 3.45631 14.8827 2.5152 14.1888 1.82132L13.906 2.10416C14.5248 2.72303 14.8725 3.5624 14.8725 4.43761H15.2725ZM15.2725 11.4376V4.43761H14.8725V11.4376H15.2725ZM14.1888 14.0539C14.8827 13.36 15.2725 12.4189 15.2725 11.4376H14.8725C14.8725 12.3128 14.5248 13.1522 13.906 13.7711L14.1888 14.0539ZM11.5725 15.1376C12.5538 15.1376 13.4949 14.7478 14.1888 14.0539L13.906 13.7711C13.2871 14.3899 12.4477 14.7376 11.5725 14.7376V15.1376ZM4.57252 15.1376H11.5725V14.7376H4.57252V15.1376ZM1.95622 14.0539C2.65011 14.7478 3.59122 15.1376 4.57252 15.1376V14.7376C3.6973 14.7376 2.85793 14.3899 2.23906 13.7711L1.95622 14.0539ZM0.872517 11.4376C0.872517 12.4189 1.26234 13.36 1.95622 14.0539L2.23906 13.7711C1.62019 13.1522 1.27252 12.3128 1.27252 11.4376H0.872517ZM0.872517 4.43761V11.4376H1.27252V4.43761H0.872517ZM1.95622 1.82132C1.26234 2.5152 0.872517 3.45631 0.872517 4.43761H1.27252C1.27252 3.5624 1.62019 2.72303 2.23906 2.10416L1.95622 1.82132ZM3.22901 3.09411C3.58533 2.73779 4.06861 2.53761 4.57252 2.53761V2.13761C3.96252 2.13761 3.3775 2.37993 2.94617 2.81127L3.22901 3.09411ZM2.67252 4.43761C2.67252 3.9337 2.87269 3.45043 3.22901 3.09411L2.94617 2.81127C2.51484 3.2426 2.27252 3.82762 2.27252 4.43761H2.67252ZM2.67252 11.4376V4.43761H2.27252V11.4376H2.67252ZM3.22901 12.7811C2.87269 12.4248 2.67252 11.9415 2.67252 11.4376H2.27252C2.27252 12.0476 2.51484 12.6326 2.94617 13.064L3.22901 12.7811ZM4.57252 13.3376C4.06861 13.3376 3.58533 13.1374 3.22901 12.7811L2.94617 13.064C3.37751 13.4953 3.96252 13.7376 4.57252 13.7376V13.3376ZM11.5725 13.3376H4.57252V13.7376H11.5725V13.3376ZM12.916 12.7811C12.5597 13.1374 12.0764 13.3376 11.5725 13.3376V13.7376C12.1825 13.7376 12.7675 13.4953 13.1989 13.064L12.916 12.7811ZM13.4725 11.4376C13.4725 11.9415 13.2723 12.4248 12.916 12.7811L13.1989 13.064C13.6302 12.6326 13.8725 12.0476 13.8725 11.4376H13.4725ZM13.4725 4.43761V11.4376H13.8725V4.43761H13.4725ZM12.916 3.09411C13.2723 3.45043 13.4725 3.9337 13.4725 4.43761H13.8725C13.8725 3.82762 13.6302 3.2426 13.1989 2.81127L12.916 3.09411ZM11.5725 2.53761C12.0764 2.53761 12.5597 2.73779 12.916 3.09411L13.1989 2.81127C12.7675 2.37993 12.1825 2.13761 11.5725 2.13761V2.53761ZM4.57252 2.53761H11.5725V2.13761H4.57252V2.53761ZM8.07252 4.23761C7.09122 4.23761 6.15011 4.62743 5.45622 5.32132L5.73906 5.60416C6.35793 4.98529 7.1973 4.63761 8.07252 4.63761V4.23761ZM10.6888 5.32132C9.99493 4.62743 9.05382 4.23761 8.07252 4.23761V4.63761C8.94773 4.63761 9.7871 4.98529 10.406 5.60416L10.6888 5.32132ZM11.7725 7.93761C11.7725 6.95631 11.3827 6.0152 10.6888 5.32132L10.406 5.60416C11.0248 6.22303 11.3725 7.0624 11.3725 7.93761H11.7725ZM10.6888 10.5539C11.3827 9.86003 11.7725 8.91891 11.7725 7.93761H11.3725C11.3725 8.81283 11.0248 9.6522 10.406 10.2711L10.6888 10.5539ZM8.07252 11.6376C9.05382 11.6376 9.99493 11.2478 10.6888 10.5539L10.406 10.2711C9.7871 10.8899 8.94773 11.2376 8.07252 11.2376V11.6376ZM5.45622 10.5539C6.15011 11.2478 7.09122 11.6376 8.07252 11.6376V11.2376C7.1973 11.2376 6.35793 10.8899 5.73906 10.2711L5.45622 10.5539ZM4.37252 7.93761C4.37252 8.91891 4.76234 9.86003 5.45622 10.5539L5.73906 10.2711C5.12019 9.6522 4.77252 8.81283 4.77252 7.93761H4.37252ZM5.45622 5.32132C4.76234 6.0152 4.37252 6.95631 4.37252 7.93761H4.77252C4.77252 7.0624 5.12019 6.22303 5.73906 5.60416L5.45622 5.32132ZM6.72901 6.59411C7.08533 6.23779 7.56861 6.03761 8.07252 6.03761V5.63761C7.46252 5.63761 6.8775 5.87993 6.44617 6.31127L6.72901 6.59411ZM6.17252 7.93761C6.17252 7.4337 6.37269 6.95043 6.72901 6.59411L6.44617 6.31127C6.01484 6.7426 5.77252 7.32762 5.77252 7.93761H6.17252ZM6.72901 9.28112C6.37269 8.9248 6.17252 8.44153 6.17252 7.93761H5.77252C5.77252 8.54761 6.01484 9.13263 6.44617 9.56396L6.72901 9.28112ZM8.07252 9.83762C7.56861 9.83761 7.08533 9.63744 6.72901 9.28112L6.44617 9.56396C6.8775 9.99529 7.46252 10.2376 8.07252 10.2376L8.07252 9.83762ZM9.41602 9.28112C9.0597 9.63744 8.57643 9.83761 8.07252 9.83762L8.07252 10.2376C8.68252 10.2376 9.26753 9.99529 9.69886 9.56396L9.41602 9.28112ZM9.97252 7.93761C9.97252 8.44153 9.77234 8.9248 9.41602 9.28112L9.69886 9.56396C10.1302 9.13263 10.3725 8.54761 10.3725 7.93761L9.97252 7.93761ZM9.41602 6.59411C9.77234 6.95043 9.97252 7.4337 9.97252 7.93761L10.3725 7.93761C10.3725 7.32762 10.1302 6.7426 9.69886 6.31127L9.41602 6.59411ZM8.07252 6.03761C8.57643 6.03761 9.0597 6.23779 9.41602 6.59411L9.69886 6.31127C9.26753 5.87993 8.68252 5.63761 8.07252 5.63761V6.03761ZM11.9225 4.98761C12.1612 4.98761 12.3901 4.89279 12.5589 4.72401L12.2761 4.44117C12.1823 4.53494 12.0551 4.58761 11.9225 4.58761V4.98761ZM11.2861 4.72401C11.4549 4.89279 11.6838 4.98761 11.9225 4.98761V4.58761C11.7899 4.58761 11.6627 4.53494 11.569 4.44117L11.2861 4.72401ZM11.0225 4.08761C11.0225 4.32631 11.1173 4.55523 11.2861 4.72401L11.569 4.44117C11.4752 4.3474 11.4225 4.22022 11.4225 4.08761H11.0225ZM11.2861 3.45122C11.1173 3.62 11.0225 3.84892 11.0225 4.08761H11.4225C11.4225 3.95501 11.4752 3.82783 11.569 3.73406L11.2861 3.45122ZM11.9225 3.18761C11.6838 3.18761 11.4549 3.28244 11.2861 3.45122L11.569 3.73406C11.6627 3.64029 11.7899 3.58761 11.9225 3.58761V3.18761ZM12.5589 3.45122C12.3901 3.28244 12.1612 3.18761 11.9225 3.18761V3.58761C12.0551 3.58761 12.1823 3.64029 12.2761 3.73406L12.5589 3.45122ZM12.8225 4.08761C12.8225 3.84892 12.7277 3.62 12.5589 3.45122L12.2761 3.73406C12.3698 3.82783 12.4225 3.95501 12.4225 4.08761H12.8225ZM12.5589 4.72401C12.7277 4.55523 12.8225 4.32631 12.8225 4.08761H12.4225C12.4225 4.22022 12.3698 4.3474 12.2761 4.44117L12.5589 4.72401Z" fill="#334F78" mask="url(#path-1-outside-1_116_339)"/>
</svg>
