<svg width="31" height="31" viewBox="0 0 31 31" fill="none" xmlns="http://www.w3.org/2000/svg">
<path d="M6.99053 2.66162C6.18648 2.66162 5.41536 2.98103 4.84682 3.54958C4.27827 4.11812 3.95886 4.88924 3.95886 5.69329C3.95886 6.49734 4.27827 7.26845 4.84682 7.837C5.41536 8.40555 6.18648 8.72495 6.99053 8.72495C7.79458 8.72495 8.56569 8.40555 9.13424 7.837C9.70279 7.26845 10.0222 6.49734 10.0222 5.69329C10.0222 4.88924 9.70279 4.11812 9.13424 3.54958C8.56569 2.98103 7.79458 2.66162 6.99053 2.66162ZM4.1372 11.2216C4.0899 11.2216 4.04454 11.2404 4.01109 11.2739C3.97765 11.3073 3.95886 11.3527 3.95886 11.4V29.9466C3.95886 30.0451 4.03876 30.125 4.1372 30.125H9.84386C9.89116 30.125 9.93652 30.1062 9.96996 30.0727C10.0034 30.0393 10.0222 29.9939 10.0222 29.9466V11.4C10.0222 11.3527 10.0034 11.3073 9.96996 11.2739C9.93652 11.2404 9.89116 11.2216 9.84386 11.2216H4.1372ZM13.4105 11.2216C13.3632 11.2216 13.3179 11.2404 13.2844 11.2739C13.251 11.3073 13.2322 11.3527 13.2322 11.4V29.9466C13.2322 30.0451 13.3121 30.125 13.4105 30.125H19.1172C19.1645 30.125 19.2099 30.1062 19.2433 30.0727C19.2767 30.0393 19.2955 29.9939 19.2955 29.9466V19.96C19.2955 19.2505 19.5774 18.5701 20.079 18.0684C20.5807 17.5668 21.2611 17.285 21.9705 17.285C22.68 17.285 23.3604 17.5668 23.862 18.0684C24.3637 18.5701 24.6455 19.2505 24.6455 19.96V29.9466C24.6455 30.0451 24.7254 30.125 24.8239 30.125H30.5305C30.5778 30.125 30.6232 30.1062 30.6566 30.0727C30.6901 30.0393 30.7089 29.9939 30.7089 29.9466V17.6488C30.7089 14.1862 27.6986 11.4784 24.2532 11.7909C23.1872 11.8879 22.143 12.1517 21.1588 12.5727L19.2955 13.3716V11.4C19.2955 11.3527 19.2767 11.3073 19.2433 11.2739C19.2099 11.2404 19.1645 11.2216 19.1172 11.2216H13.4105Z" fill="#C0EEEE"/>
<path fill-rule="evenodd" clip-rule="evenodd" d="M4.44667 0.875C3.52164 0.875 2.63451 1.24246 1.98042 1.89655C1.32633 2.55064 0.958862 3.43778 0.958862 4.3628C0.958862 5.28783 1.32633 6.17497 1.98042 6.82906C2.63451 7.48315 3.52164 7.85061 4.44667 7.85061C5.37169 7.85061 6.25883 7.48315 6.91292 6.82906C7.56701 6.17497 7.93447 5.28783 7.93447 4.3628C7.93447 3.43778 7.56701 2.55064 6.91292 1.89655C6.25883 1.24246 5.37169 0.875 4.44667 0.875ZM2.8613 4.3628C2.8613 3.94234 3.02833 3.5391 3.32564 3.24178C3.62296 2.94447 4.0262 2.77744 4.44667 2.77744C4.86713 2.77744 5.27038 2.94447 5.56769 3.24178C5.865 3.5391 6.03203 3.94234 6.03203 4.3628C6.03203 4.78327 5.865 5.18651 5.56769 5.48383C5.27038 5.78114 4.86713 5.94817 4.44667 5.94817C4.0262 5.94817 3.62296 5.78114 3.32564 5.48383C3.02833 5.18651 2.8613 4.78327 2.8613 4.3628ZM0.958862 9.43598C0.958862 9.1837 1.05908 8.94175 1.23747 8.76336C1.41586 8.58497 1.6578 8.48476 1.91008 8.48476H6.98325C7.23553 8.48476 7.47748 8.58497 7.65587 8.76336C7.83425 8.94175 7.93447 9.1837 7.93447 9.43598V25.9238C7.93447 26.1761 7.83425 26.418 7.65587 26.5964C7.47748 26.7748 7.23553 26.875 6.98325 26.875H1.91008C1.6578 26.875 1.41586 26.7748 1.23747 26.5964C1.05908 26.418 0.958862 26.1761 0.958862 25.9238V9.43598ZM2.8613 10.3872V24.9726H6.03203V10.3872H2.8613ZM9.83691 9.43598C9.83691 9.1837 9.93713 8.94175 10.1155 8.76336C10.2939 8.58497 10.5359 8.48476 10.7881 8.48476H15.8613C16.1136 8.48476 16.3555 8.58497 16.5339 8.76336C16.7123 8.94175 16.8125 9.1837 16.8125 9.43598V9.98641L17.3642 9.74924C18.3155 9.34273 19.3246 9.08808 20.3549 8.99461C23.8744 8.675 26.9589 11.4399 26.9589 14.9911V25.9238C26.9589 26.1761 26.8586 26.418 26.6803 26.5964C26.5019 26.7748 26.2599 26.875 26.0076 26.875H20.9345C20.6822 26.875 20.4402 26.7748 20.2619 26.5964C20.0835 26.418 19.9833 26.1761 19.9833 25.9238V17.0457C19.9833 16.6253 19.8162 16.222 19.5189 15.9247C19.2216 15.6274 18.8184 15.4604 18.3979 15.4604C17.9774 15.4604 17.5742 15.6274 17.2769 15.9247C16.9795 16.222 16.8125 16.6253 16.8125 17.0457V25.9238C16.8125 26.1761 16.7123 26.418 16.5339 26.5964C16.3555 26.7748 16.1136 26.875 15.8613 26.875H10.7881C10.5359 26.875 10.2939 26.7748 10.1155 26.5964C9.93713 26.418 9.83691 26.1761 9.83691 25.9238V9.43598ZM11.7394 10.3872V24.9726H14.9101V17.0457C14.9101 16.1207 15.2775 15.2336 15.9316 14.5795C16.5857 13.9254 17.4729 13.5579 18.3979 13.5579C19.3229 13.5579 20.21 13.9254 20.8641 14.5795C21.5182 15.2336 21.8857 16.1207 21.8857 17.0457V24.9726H25.0564V14.9911C25.0564 12.5763 22.9498 10.6688 20.5286 10.8894C19.6968 10.9651 18.882 11.1705 18.1138 11.4982L16.2367 12.3036C16.0919 12.3658 15.934 12.391 15.777 12.3771C15.6201 12.3631 15.469 12.3104 15.3375 12.2236C15.206 12.1368 15.0981 12.0188 15.0235 11.88C14.9489 11.7412 14.9099 11.586 14.9101 11.4285V10.3872H11.7394Z" fill="#334F78"/>
</svg>
