<svg width="23" height="22" viewBox="0 0 23 22" fill="none" xmlns="http://www.w3.org/2000/svg">
<path d="M8.42857 3.32751C8.08758 3.32751 7.76055 3.46297 7.51943 3.70409C7.27832 3.94521 7.14286 4.27224 7.14286 4.61323C7.14286 4.95422 7.27832 5.28125 7.51943 5.52237C7.76055 5.76348 8.08758 5.89894 8.42857 5.89894H16.1429C16.4838 5.89894 16.8109 5.76348 17.052 5.52237C17.2931 5.28125 17.4286 4.95422 17.4286 4.61323C17.4286 4.27224 17.2931 3.94521 17.052 3.70409C16.8109 3.46297 16.4838 3.32751 16.1429 3.32751H8.42857ZM4.57143 8.47037C4.57143 8.12938 4.70689 7.80235 4.94801 7.56123C5.18912 7.32012 5.51615 7.18466 5.85714 7.18466H18.7143C19.0553 7.18466 19.3823 7.32012 19.6234 7.56123C19.8645 7.80235 20 8.12938 20 8.47037C20 8.81136 19.8645 9.13839 19.6234 9.37951C19.3823 9.62063 19.0553 9.75609 18.7143 9.75609H5.85714C5.51615 9.75609 5.18912 9.62063 4.94801 9.37951C4.70689 9.13839 4.57143 8.81136 4.57143 8.47037ZM2 13.6132C2 12.9312 2.27092 12.2772 2.75315 11.795C3.23539 11.3127 3.88944 11.0418 4.57143 11.0418H20C20.682 11.0418 21.336 11.3127 21.8183 11.795C22.3005 12.2772 22.5714 12.9312 22.5714 13.6132V18.7561C22.5714 19.4381 22.3005 20.0921 21.8183 20.5744C21.336 21.0566 20.682 21.3275 20 21.3275H4.57143C3.88944 21.3275 3.23539 21.0566 2.75315 20.5744C2.27092 20.0921 2 19.4381 2 18.7561V13.6132Z" fill="#C0EEEE"/>
<path d="M17 9.32751H3M17 9.32751C17.5304 9.32751 18.0391 9.53823 18.4142 9.9133C18.7893 10.2884 19 10.7971 19 11.3275V17.3275C19 17.8579 18.7893 18.3667 18.4142 18.7417C18.0391 19.1168 17.5304 19.3275 17 19.3275H3C2.46957 19.3275 1.96086 19.1168 1.58579 18.7417C1.21071 18.3667 1 17.8579 1 17.3275V11.3275C1 10.7971 1.21071 10.2884 1.58579 9.9133C1.96086 9.53823 2.46957 9.32751 3 9.32751M17 9.32751V7.32751C17 6.79708 16.7893 6.28837 16.4142 5.9133C16.0391 5.53823 15.5304 5.32751 15 5.32751M3 9.32751V7.32751C3 6.79708 3.21071 6.28837 3.58579 5.9133C3.96086 5.53823 4.46957 5.32751 5 5.32751M15 5.32751V3.32751C15 2.79708 14.7893 2.28837 14.4142 1.9133C14.0391 1.53823 13.5304 1.32751 13 1.32751H7C6.46957 1.32751 5.96086 1.53823 5.58579 1.9133C5.21071 2.28837 5 2.79708 5 3.32751V5.32751M15 5.32751H5" stroke="#334F78" stroke-width="2" stroke-linecap="round" stroke-linejoin="round"/>
</svg>
