<svg width="19" height="18" viewBox="0 0 19 18" fill="none" xmlns="http://www.w3.org/2000/svg">
<path d="M15.5271 6.49136H13.3202V12.0086H15.5271C17.0506 12.0086 18.2857 13.2437 18.2857 14.7672V15.0431C18.2857 16.4143 17.1741 17.5258 15.8029 17.5258C14.4318 17.5258 13.3202 16.4143 13.3202 15.0431V12.0086H7.80295V14.7672C7.80295 16.2908 6.56787 17.5258 5.04433 17.5258C3.52078 17.5258 2.28571 16.2908 2.28571 14.7672C2.28571 13.2437 3.52078 12.0086 5.04433 12.0086H7.80295V6.49136H5.04433C3.52078 6.49136 2.28571 5.25629 2.28571 3.73274C2.28571 2.2092 3.52078 0.974121 5.04433 0.974121C6.56787 0.974121 7.80295 2.2092 7.80295 3.73274V6.49136H13.3202V3.45688C13.3202 2.08569 14.4318 0.974121 15.8029 0.974121C17.1741 0.974121 18.2857 2.08569 18.2857 3.45688V3.73274C18.2857 5.25629 17.0506 6.49136 15.5271 6.49136Z" fill="#C0EEEE"/>
<path d="M13.5357 0.75V0.75C12.2931 0.75 11.2857 1.75736 11.2857 3V13.5C11.2857 14.7426 12.2931 15.75 13.5357 15.75V15.75C14.7783 15.75 15.7857 14.7426 15.7857 13.5V13.25C15.7857 11.8693 14.6664 10.75 13.2857 10.75H3.78571C2.40499 10.75 1.28571 11.8693 1.28571 13.25V13.25C1.28571 14.6307 2.40499 15.75 3.78571 15.75V15.75C5.16642 15.75 6.28571 14.6307 6.28571 13.25V3.25C6.28571 1.86929 5.16642 0.75 3.78571 0.75V0.75C2.40499 0.75 1.28571 1.86929 1.28571 3.25V3.25C1.28571 4.63071 2.40499 5.75 3.78571 5.75H13.2857C14.6664 5.75 15.7857 4.63071 15.7857 3.25V3C15.7857 1.75736 14.7783 0.75 13.5357 0.75Z" stroke="#334F78" stroke-width="1.5"/>
</svg>
