<svg width="149" height="148" viewBox="0 0 149 148" fill="none" xmlns="http://www.w3.org/2000/svg">
<path fill-rule="evenodd" clip-rule="evenodd" d="M120.492 99.2896C120.624 99.0489 120.755 98.8073 120.883 98.5649L57.1108 24.4781C56.852 24.5689 56.5937 24.6618 56.336 24.7568L120.492 99.2896ZM55.5701 25.046C55.3173 25.1438 55.0649 25.2437 54.8132 25.3455L119.683 100.708C119.821 100.474 119.958 100.239 120.092 100.004L55.5701 25.046ZM105.646 116.231C105.439 116.384 105.231 116.536 105.022 116.685L36.8317 37.4654C37.0108 37.2813 37.1914 37.0981 37.3736 36.9161L105.646 116.231ZM35.7702 38.5899C35.9443 38.4 36.1199 38.2112 36.2972 38.0234L104.391 117.131C104.179 117.278 103.966 117.424 103.752 117.568L35.7702 38.5899ZM82.4833 125.868C82.7805 125.823 83.0775 125.775 83.3741 125.724L24.6721 57.5277C24.5779 57.8135 24.4863 58.1 24.3971 58.3871L82.4833 125.868ZM24.1341 59.2605C24.048 59.5558 23.9645 59.8518 23.8836 60.1483L80.6653 126.114C80.9706 126.078 81.2757 126.04 81.5805 125.998L24.1341 59.2605ZM46.7618 118.558C45.9653 118.062 45.1799 117.542 44.4064 117L27.5004 97.3598C27.0793 96.5142 26.6828 95.6602 26.3107 94.7988L46.7618 118.558ZM34.7316 108.232C32.6342 105.795 30.7999 103.221 29.2263 100.544L41.5146 114.82C39.1016 112.865 36.8291 110.668 34.7316 108.232ZM122.696 94.7771C122.81 94.5138 122.921 94.2498 123.029 93.985L61.959 23.0369C61.681 23.1051 61.4034 23.1756 61.1263 23.2484L122.696 94.7771ZM60.3037 23.4717C60.0324 23.5478 59.7615 23.6261 59.4911 23.7066L122 96.3259C122.12 96.0705 122.238 95.8143 122.353 95.5573L60.3037 23.4717ZM108.732 113.768L108.656 113.833L40.1929 34.2967L40.2684 34.2316C40.4377 34.0858 40.6078 33.9413 40.7784 33.7981L109.236 113.328C109.069 113.476 108.901 113.623 108.732 113.768ZM39.0434 35.3191C39.2322 35.1462 39.4226 34.9744 39.6145 34.8037L108.069 114.33C107.871 114.494 107.673 114.657 107.474 114.818L39.0434 35.3191ZM87.6589 124.807C87.9344 124.736 88.2095 124.663 88.4841 124.587L26.5569 52.6438C26.4412 52.9041 26.3277 53.1652 26.2163 53.427L87.6589 124.807ZM25.886 54.2221C25.777 54.4905 25.6704 54.7596 25.5661 55.0294L85.9776 125.212C86.2599 125.149 86.5419 125.084 86.8235 125.016L25.886 54.2221ZM57.1222 123.52C56.6255 123.347 56.131 123.165 55.639 122.976L23.2625 85.363C23.1488 84.8483 23.043 84.3323 22.9451 83.8153L57.1222 123.52ZM24.1209 88.7181C23.9537 88.1446 23.7967 87.569 23.6496 86.9916L54.0861 122.351C53.5369 122.12 52.9912 121.879 52.449 121.628L24.1209 88.7181ZM125.01 59.7399C124.839 59.1329 124.657 58.5282 124.464 57.9261L97.83 26.9844C97.2633 26.7035 96.6924 26.4334 96.1176 26.174L125.01 59.7399ZM94.504 25.4784C93.9955 25.2692 93.4843 25.0683 92.9704 24.8756L125.826 63.0453C125.712 62.5086 125.589 61.9731 125.458 61.4391L94.504 25.4784ZM126.873 77.2294C126.85 77.5923 126.824 77.9549 126.794 78.3172L78.0127 21.6455C78.3754 21.6699 78.7379 21.698 79.1 21.7298L126.873 77.2294ZM75.8975 21.5461C76.247 21.5555 76.5964 21.5684 76.9456 21.5847L126.696 79.3815C126.66 79.7292 126.621 80.0766 126.578 80.4236L75.8975 21.5461ZM117.962 103.424C118.111 103.203 118.259 102.982 118.405 102.759L52.5941 26.3043C52.3525 26.4154 52.1116 26.5284 51.8713 26.6434L117.962 103.424ZM51.1567 26.9921C50.9205 27.1096 50.685 27.229 50.4502 27.3503L117.051 104.724C117.206 104.51 117.359 104.295 117.511 104.079L51.1567 26.9921ZM101.791 118.826C101.569 118.962 101.346 119.096 101.122 119.228L33.7375 40.9441C33.9014 40.7425 34.0669 40.5419 34.2342 40.3423L101.791 118.826ZM32.7673 42.1749C32.926 41.9673 33.0864 41.7606 33.2485 41.555L100.445 119.62C100.218 119.75 99.9895 119.878 99.7606 120.004L32.7673 42.1749ZM76.8703 126.421C77.1936 126.406 77.517 126.389 77.8402 126.369L23.2114 62.9041C23.1432 63.2207 23.0779 63.5378 23.0155 63.8555L76.8703 126.421ZM22.8347 64.8243C22.7765 65.1529 22.7215 65.4819 22.6696 65.8115L74.8846 126.472C75.2181 126.47 75.5517 126.464 75.8853 126.455L22.8347 64.8243ZM126.567 67.4424C126.623 67.8936 126.673 68.3453 126.718 68.7974L87.4151 23.1375C87.8556 23.2489 88.2947 23.3661 88.7325 23.489L126.567 67.4424ZM84.8926 22.5648C85.3082 22.6485 85.7228 22.7372 86.1365 22.8309L126.831 70.1075C126.862 70.5305 126.888 70.9537 126.909 71.3771L84.8926 22.5648ZM125.935 84.3926C126 84.0717 126.061 83.7503 126.12 83.4284L72.8581 21.5518C72.531 21.5618 72.204 21.5749 71.8771 21.591L125.935 84.3926ZM70.911 21.6476C70.5936 21.6691 70.2763 21.6935 69.9592 21.7208L125.521 86.2698C125.596 85.9603 125.667 85.6502 125.735 85.3395L70.911 21.6476ZM115.626 106.604C115.464 106.808 115.3 107.011 115.135 107.213L47.7039 28.8755C47.9281 28.742 48.1531 28.6104 48.3787 28.4806L115.626 106.604ZM46.3774 29.6923C46.5965 29.5529 46.8163 29.4153 47.0368 29.2795L114.636 107.812C114.469 108.01 114.3 108.207 114.129 108.403L46.3774 29.6923ZM96.9423 121.445C97.1818 121.332 97.4207 121.216 97.659 121.099L31.3716 44.0901C31.22 44.3083 31.0704 44.5273 30.9225 44.7473L96.9423 121.445ZM30.4817 45.4142C30.3357 45.6388 30.1916 45.8643 30.0493 46.0907L95.4839 122.109C95.729 122.002 95.9734 121.893 96.2173 121.782L30.4817 45.4142ZM71.7799 126.402C71.4222 126.383 71.0648 126.361 70.7076 126.335L22.1834 69.9623C22.211 69.6053 22.2422 69.2485 22.277 68.892L71.7799 126.402ZM22.0593 72.176C22.0724 71.8026 22.0894 71.4294 22.1104 71.0564L69.6148 126.244C69.2429 126.21 68.8713 126.171 68.5001 126.128L22.0593 72.176ZM124.533 89.837C124.624 89.5477 124.713 89.2578 124.799 88.9672L67.1843 22.0339C66.8842 22.0758 66.5843 22.1204 66.2846 22.1676L124.533 89.837ZM65.397 22.3152C65.1046 22.3664 64.8126 22.4202 64.5209 22.4764L123.965 91.5352C124.064 91.2551 124.161 90.9743 124.255 90.6928L65.397 22.3152ZM112.565 110.122C112.388 110.308 112.209 110.494 112.029 110.678L43.8152 31.4313C44.0242 31.2803 44.2339 31.1311 44.4445 30.9836L112.565 110.122ZM42.5786 32.3526C42.7826 32.1959 42.9875 32.0409 43.1932 31.8877L111.485 111.225C111.303 111.405 111.119 111.585 110.934 111.763L42.5786 32.3526ZM92.4641 123.316C92.7207 123.223 92.9767 123.127 93.2322 123.03L28.8035 48.1803C28.669 48.4184 28.5364 48.6574 28.4059 48.8972L92.4641 123.316ZM28.0173 49.6247C27.8888 49.8699 27.7623 50.116 27.6379 50.3629L90.9005 123.858C91.1631 123.771 91.4253 123.683 91.6869 123.592L28.0173 49.6247ZM65.0083 125.608C64.6007 125.534 64.194 125.454 63.7882 125.37L22.1081 76.9483C22.0851 76.5344 22.067 76.1204 22.0538 75.7063L65.0083 125.608ZM22.3173 79.5492C22.2709 79.1092 22.2301 78.6687 22.1948 78.228L62.5357 125.094C62.1051 124.993 61.6756 124.887 61.2474 124.776L22.3173 79.5492ZM58.6882 23.9528C58.4232 24.0363 58.1588 24.1221 57.8948 24.21L121.265 97.8295C121.391 97.5815 121.515 97.3328 121.637 97.0832L58.6882 23.9528ZM37.9229 36.3753C38.1069 36.1968 38.2924 36.0193 38.4795 35.843L106.872 115.297C106.67 115.456 106.467 115.613 106.263 115.769L37.9229 36.3753ZM25.2569 55.8492C25.1552 56.1261 25.0558 56.4036 24.9588 56.6819L84.2532 125.567C84.5427 125.512 84.832 125.455 85.1209 125.396L25.2569 55.8492ZM25.4096 92.573C25.158 91.9078 24.9205 91.2388 24.6971 90.5664L50.707 120.783C50.0753 120.462 49.4491 120.128 48.8287 119.78L25.4096 92.573ZM63.6561 22.6506C63.3711 22.7105 63.0864 22.7728 62.8022 22.8376L123.352 93.1809C123.458 92.9095 123.562 92.6373 123.664 92.3644L63.6561 22.6506ZM41.3712 33.3078C41.5704 33.1455 41.7704 32.9849 41.9713 32.826L110.375 112.294C110.188 112.469 109.999 112.642 109.809 112.815L41.3712 33.3078ZM27.2679 51.112C27.1457 51.3646 27.0256 51.618 26.9075 51.8722L89.2993 124.355C89.5682 124.276 89.8367 124.195 90.1047 124.112L27.2679 51.112ZM22.6868 82.3363C22.6112 81.8638 22.5422 81.3906 22.4796 80.9167L59.9192 124.412C59.46 124.28 59.0023 124.141 58.5463 123.996L22.6868 82.3363ZM117.576 44.0294C116.557 42.5692 115.455 41.1468 114.268 39.7684C113.082 38.3899 111.839 37.0882 110.547 35.8638L117.576 44.0294ZM106.656 32.5223C105.77 31.834 104.866 31.1776 103.946 30.5533L121.845 51.3468C121.364 50.3441 120.85 49.3527 120.301 48.3744L106.656 32.5223ZM99.669 27.942C100.346 28.312 101.017 28.6978 101.68 29.0995L122.945 53.8041C123.244 54.5197 123.525 55.2402 123.791 55.965L99.669 27.942ZM126.973 73.8089C126.972 73.4093 126.966 73.0095 126.955 72.6099L83.6804 22.3355C83.2868 22.2658 82.8924 22.2006 82.4973 22.1399L126.973 73.8089ZM81.3408 21.9751C80.964 21.9257 80.5866 21.8804 80.2089 21.8391L126.93 76.1166C126.945 75.737 126.956 75.3571 126.964 74.9771L81.3408 21.9751ZM53.3253 25.9748C53.5713 25.8663 53.8178 25.7597 54.065 25.6552L119.266 101.402C119.125 101.63 118.983 101.858 118.84 102.085L53.3253 25.9748ZM35.2506 39.1652C35.0783 39.3589 34.9076 39.5536 34.7386 39.7494L102.452 118.415C102.671 118.277 102.889 118.138 103.106 117.996L35.2506 39.1652ZM23.4218 61.9696C23.4938 61.6629 23.5685 61.3567 23.646 61.0512L79.7371 126.215C79.4235 126.246 79.1096 126.274 78.7956 126.3L23.4218 61.9696ZM91.5034 24.3503C91.0353 24.1904 90.5652 24.0373 90.0933 23.891L126.372 66.0369C126.297 65.5485 126.216 65.0609 126.127 64.5742L91.5034 24.3503ZM73.8546 21.5306C74.1923 21.5266 74.5299 21.5259 74.8675 21.5284L126.442 81.4448C126.394 81.779 126.343 82.1127 126.289 82.4461L73.8546 21.5306ZM49.7518 27.7179C49.5209 27.8416 49.2908 27.9672 49.0613 28.0946L116.109 105.987C116.269 105.779 116.427 105.57 116.584 105.36L49.7518 27.7179ZM31.8288 43.4424C31.9821 43.2286 32.1372 43.0158 32.2941 42.804L99.0681 120.378C98.8352 120.502 98.6017 120.624 98.3676 120.743L31.8288 43.4424ZM22.5211 66.8178C22.474 67.1595 22.4302 67.5017 22.3899 67.8443L72.8328 126.446C73.1775 126.457 73.5224 126.465 73.8673 126.469L22.5211 66.8178ZM69.0211 21.8099C68.7127 21.842 68.4044 21.8769 68.0963 21.9145L125.053 88.0831C125.136 87.7841 125.216 87.4844 125.294 87.1842L69.0211 21.8099ZM45.0813 30.5444C45.2953 30.3992 45.5101 30.2557 45.7256 30.114L113.615 108.985C113.443 109.177 113.269 109.368 113.094 109.558L45.0813 30.5444ZM29.6254 46.7772C29.485 47.0084 29.3466 47.2406 29.21 47.4736L93.9915 122.733C94.2422 122.633 94.4924 122.53 94.742 122.426L29.6254 46.7772ZM22.0291 74.4987C22.0255 74.1066 22.0264 73.7146 22.0316 73.3227L67.362 125.985C66.9737 125.932 66.5859 125.874 66.1988 125.812L22.0291 74.4987Z" fill="#C0EEEE"/>
<path d="M93.4885 70.1777C93.7701 70.2341 94.0608 70.2592 94.3635 70.2457C95.344 70.2022 96.2527 69.7619 97.1916 69.1193C97.9616 68.5922 98.4162 67.7736 98.5568 66.9298L99.3512 62.1635C99.4972 61.2874 99.6102 60.1924 99.2707 59.1104C98.806 57.6294 97.7985 56.4125 96.1725 56.2515C95.51 56.1858 94.8259 56.308 94.1315 56.5875C94.3092 55.9036 94.4569 55.0865 94.587 54.1271C94.8852 51.9282 95.1078 48.8432 95.3456 44.6243L95.3889 43.8553L95.6336 43.6717L95.7138 43.225C96.4841 38.9334 94.41 35.2303 91.1064 32.5426C87.8122 29.8625 83.185 28.077 78.421 27.5033C73.6561 26.9295 68.6235 27.5529 64.5409 29.8482C60.4136 32.1686 57.3376 36.1581 56.5188 42.0944L56.4561 42.5491L56.7228 42.9226L57.6085 44.1626L57.4354 44.1972L56.5651 44.3713L56.5102 45.2571C56.2119 50.0697 56.5189 52.6624 57.5464 56.5836C56.981 56.3658 56.4334 56.2403 55.8998 56.2372C54.5105 56.229 53.5374 57.0258 52.7833 58.1156C52.1201 59.0738 51.8378 60.1979 51.8169 61.2718C51.7781 63.2685 52.1177 64.5889 52.7054 66.4088C53.0321 67.7423 53.4792 69.0977 54.6531 69.8802C55.5428 70.4733 56.664 70.6182 58.0104 70.5C58.0232 76.9457 60.647 83.0435 66.2875 86.6144L64.7995 91.3762C61.6577 92.6064 58.8487 93.1927 56.4066 93.6146C55.925 93.6978 55.4492 93.7755 54.9821 93.8517C53.0309 94.1702 51.2342 94.4635 49.8225 95.0281C48.1156 95.7108 47.0343 97.194 46.2603 98.4419C45.1261 100.271 44.3652 101.907 44.08 103.638C43.7921 105.385 44.0057 107.122 44.6408 109.127L45.0182 110.319L46.1759 109.847C51.392 107.722 55.4822 106.63 59.7792 106.595C64.0728 106.56 68.6721 107.58 74.9026 109.844C80.7261 112.636 88.8059 113.397 95.3761 112.959C98.6816 112.738 101.689 112.209 103.905 111.437C105.007 111.052 105.981 110.585 106.701 110.016C107.412 109.455 108.038 108.659 108.038 107.625V107.609L108.037 107.593C107.955 104.637 107.679 102.479 107.012 100.726C106.327 98.9276 105.265 97.6437 103.793 96.3702L103.791 96.3683C102.298 95.0828 100.942 94.6253 98.2254 94.1813L98.1897 94.1755L98.1538 94.1719C94.1896 93.7763 91.6782 93.0964 87.0147 91.3483L85.2092 86.5338C88.2701 84.4054 90.4607 82.3262 91.8131 79.6067C93.0792 77.0606 93.5525 74.0708 93.4885 70.1777Z" fill="#F1FBFB" stroke="#F1FBFB" stroke-width="2.3073"/>
<path d="M91.5987 74.9148C86.7715 86.973 64.881 89.5729 59.4579 74.0211C60.3616 81.9071 67.2277 88.836 76.1468 88.2819C84.2622 87.7856 90.8304 82.3533 91.5987 74.9148Z" fill="#ABDCEB"/>
<path d="M83.2449 83.9866L83.3949 83.831L83.5505 83.981L83.4005 84.1366L83.2449 83.9866Z" fill="white"/>
<path d="M90.1158 79.2044L90.2658 79.0488L90.4214 79.1988L90.2714 79.3544L90.1158 79.2044Z" fill="white"/>
<path d="M70.3022 87.3557L70.4522 87.2001L70.6078 87.3501L70.4578 87.5057L70.3022 87.3557Z" fill="white"/>
<path d="M78.8097 87.7135L78.9597 87.558L79.1153 87.7079L78.9653 87.8635L78.8097 87.7135Z" fill="white"/>
<path d="M74.4815 87.5932L74.6315 87.4376L74.7871 87.5876L74.6371 87.7432L74.4815 87.5932Z" fill="white"/>
<path d="M80.9638 84.103L81.1138 83.9474L81.2694 84.0974L81.1194 84.253L80.9638 84.103Z" fill="white"/>
<path d="M85.1685 84.0401L85.3185 83.8845L85.4741 84.0345L85.3241 84.1901L85.1685 84.0401Z" fill="white"/>
<path d="M62.72 82.0061L62.87 81.8505L63.0256 82.0005L62.8756 82.1561L62.72 82.0061Z" fill="white"/>
<path d="M67.308 85.9499L67.458 85.7943L67.6136 85.9443L67.4636 86.0999L67.308 85.9499Z" fill="white"/>
<path d="M72.0934 87.4434L72.2434 87.2878L72.399 87.4377L72.249 87.5933L72.0934 87.4434Z" fill="white"/>
<path d="M87.6043 82.9848L87.7543 82.8292L87.8971 82.9782L87.7457 83.1355L87.6043 82.9848Z" fill="white"/>
<path d="M76.4052 87.6467L76.5552 87.4911L76.7107 87.6411L76.5608 87.7967L76.4052 87.6467Z" fill="white"/>
<path d="M84.2067 84.0134L84.3567 83.8578L84.5123 84.0077L84.3623 84.1633L84.2067 84.0134Z" fill="white"/>
<path d="M71.1475 87.3933L71.2975 87.2377L71.4531 87.3877L71.3031 87.5433L71.1475 87.3933Z" fill="white"/>
<path d="M79.6694 87.5348L79.8194 87.3792L79.975 87.5292L79.825 87.6848L79.6694 87.5348Z" fill="white"/>
<path d="M86.6425 82.9581L86.7925 82.8025L86.948 82.9525L86.7981 83.1081L86.6425 82.9581Z" fill="white"/>
<path d="M75.4433 87.6199L75.5933 87.4643L75.7489 87.6143L75.5989 87.7699L75.4433 87.6199Z" fill="white"/>
<path d="M81.8022 83.9465L81.9521 83.7909L82.1077 83.9409L81.9578 84.0965L81.8022 83.9465Z" fill="white"/>
<path d="M86.1303 84.0668L86.2803 83.9112L86.4359 84.0612L86.2859 84.2168L86.1303 84.0668Z" fill="white"/>
<path d="M63.5632 82.1559L63.7132 82.0003L63.8688 82.1503L63.7188 82.3059L63.5632 82.1559Z" fill="white"/>
<path d="M68.2698 85.9766L68.4198 85.821L68.5754 85.971L68.4254 86.1266L68.2698 85.9766Z" fill="white"/>
<path d="M73.0388 87.5531L73.1888 87.3975L73.3444 87.5475L73.1944 87.7031L73.0388 87.5531Z" fill="white"/>
<path d="M77.3837 87.5803L77.5337 87.4247L77.6893 87.5747L77.5393 87.7303L77.3837 87.5803Z" fill="white"/>
<path d="M90.3361 77.3692L90.4861 77.2136L90.6417 77.3635L90.4917 77.5191L90.3361 77.3692Z" fill="white"/>
<path d="M60.7758 78.549L60.9258 78.3934L61.0814 78.5434L60.9314 78.699L60.7758 78.549Z" fill="white"/>
<path d="M65.4378 83.9728L65.5878 83.8172L65.7434 83.9671L65.5934 84.1227L65.4378 83.9728Z" fill="white"/>
<path d="M70.2068 85.5492L70.3568 85.3936L70.5124 85.5436L70.3624 85.6992L70.2068 85.5492Z" fill="white"/>
<path d="M78.8632 85.7899L79.0132 85.6343L79.1688 85.7843L79.0188 85.9399L78.8632 85.7899Z" fill="white"/>
<path d="M74.535 85.6696L74.685 85.514L74.8406 85.6639L74.6906 85.8195L74.535 85.6696Z" fill="white"/>
<path d="M83.1914 85.9103L83.3414 85.7547L83.497 85.9046L83.347 86.0602L83.1914 85.9103Z" fill="white"/>
<path d="M85.2998 82.1914L85.4498 82.0359L85.6054 82.1858L85.4554 82.3414L85.2998 82.1914Z" fill="white"/>
<path d="M62.6549 80.2055L62.8049 80.0499L62.9605 80.1999L62.8105 80.3555L62.6549 80.2055Z" fill="white"/>
<path d="M67.3615 84.0262L67.5114 83.8706L67.667 84.0206L67.5171 84.1762L67.3615 84.0262Z" fill="white"/>
<path d="M72.1305 85.6027L72.2804 85.4471L72.436 85.5971L72.2861 85.7527L72.1305 85.6027Z" fill="white"/>
<path d="M80.7868 85.8434L80.9368 85.6878L81.0924 85.8378L80.9424 85.9934L80.7868 85.8434Z" fill="white"/>
<path d="M87.6578 81.0612L87.8078 80.9056L87.9633 81.0556L87.8134 81.2112L87.6578 81.0612Z" fill="white"/>
<path d="M76.4587 85.723L76.6086 85.5674L76.7642 85.7174L76.6143 85.873L76.4587 85.723Z" fill="white"/>
<path d="M61.693 80.1788L61.843 80.0232L61.9986 80.1732L61.8486 80.3288L61.693 80.1788Z" fill="white"/>
<path d="M66.3996 83.9995L66.5496 83.8439L66.7052 83.9939L66.5552 84.1495L66.3996 83.9995Z" fill="white"/>
<path d="M71.1686 85.5759L71.3186 85.4203L71.4742 85.5703L71.3242 85.7259L71.1686 85.5759Z" fill="white"/>
<path d="M79.825 85.8166L79.975 85.661L80.1306 85.811L79.9806 85.9666L79.825 85.8166Z" fill="white"/>
<path d="M86.7604 81.1257L86.9104 80.9701L87.066 81.1201L86.916 81.2757L86.7604 81.1257Z" fill="white"/>
<path d="M75.4968 85.6963L75.6468 85.5407L75.8024 85.6907L75.6524 85.8463L75.4968 85.6963Z" fill="white"/>
<path d="M84.0451 85.7581L84.1951 85.6025L84.3507 85.7525L84.2007 85.9081L84.0451 85.7581Z" fill="white"/>
<path d="M86.1838 82.1432L86.3338 81.9876L86.4894 82.1376L86.3394 82.2932L86.1838 82.1432Z" fill="white"/>
<path d="M91.3945 75.3995L91.478 75.3205L91.5429 75.3794L91.4872 75.4835L91.3945 75.3995Z" fill="white"/>
<path d="M68.3233 84.053L68.4733 83.8974L68.6289 84.0474L68.4789 84.203L68.3233 84.053Z" fill="white"/>
<path d="M73.0923 85.6294L73.2423 85.4738L73.3978 85.6238L73.2479 85.7794L73.0923 85.6294Z" fill="white"/>
<path d="M81.7487 85.8701L81.8987 85.7145L82.0542 85.8645L81.9043 86.0201L81.7487 85.8701Z" fill="white"/>
<path d="M88.6196 81.0879L88.7696 80.9323L88.9252 81.0823L88.7752 81.2379L88.6196 81.0879Z" fill="white"/>
<path d="M77.4205 85.7498L77.5705 85.5942L77.726 85.7442L77.5761 85.8998L77.4205 85.7498Z" fill="white"/>
<path d="M60.6994 77.4889L60.8493 77.3333L61.0049 77.4832L60.855 77.6388L60.6994 77.4889Z" fill="white"/>
<path d="M65.4645 83.0109L65.6145 82.8553L65.7701 83.0053L65.6201 83.1609L65.4645 83.0109Z" fill="white"/>
<path d="M70.2335 84.5874L70.3835 84.4318L70.5391 84.5818L70.3891 84.7374L70.2335 84.5874Z" fill="white"/>
<path d="M78.8869 84.9381L79.0369 84.7825L79.1925 84.9325L79.0425 85.0881L78.8869 84.9381Z" fill="white"/>
<path d="M74.4946 84.9812L74.6446 84.8256L74.8002 84.9755L74.6502 85.1311L74.4946 84.9812Z" fill="white"/>
<path d="M83.2181 84.9484L83.3681 84.7928L83.5237 84.9428L83.3737 85.0984L83.2181 84.9484Z" fill="white"/>
<path d="M68.2615 83.7452L68.4115 83.5896L68.5671 83.7396L68.4171 83.8952L68.2615 83.7452Z" fill="white"/>
<path d="M72.0072 84.7965L72.1572 84.6409L72.3128 84.7909L72.1628 84.9465L72.0072 84.7965Z" fill="white"/>
<path d="M80.8136 84.8816L80.9635 84.726L81.1191 84.876L80.9692 85.0316L80.8136 84.8816Z" fill="white"/>
<path d="M88.8156 79.2769L88.9656 79.1213L89.1212 79.2712L88.9712 79.4268L88.8156 79.2769Z" fill="white"/>
<path d="M76.6672 84.9302L76.8172 84.7746L76.9728 84.9246L76.8228 85.0802L76.6672 84.9302Z" fill="white"/>
<path d="M85.1418 85.0019L85.2917 84.8463L85.4473 84.9963L85.2974 85.1519L85.1418 85.0019Z" fill="white"/>
<path d="M62.2671 81.3597L62.4171 81.2041L62.5727 81.3541L62.4227 81.5097L62.2671 81.3597Z" fill="white"/>
<path d="M61.6778 79.0406L61.8277 78.885L61.9833 79.035L61.8334 79.1906L61.6778 79.0406Z" fill="white"/>
<path d="M66.4264 83.0377L66.5763 82.8821L66.7319 83.0321L66.582 83.1877L66.4264 83.0377Z" fill="white"/>
<path d="M71.1953 84.6141L71.3453 84.4585L71.5009 84.6085L71.3509 84.7641L71.1953 84.6141Z" fill="white"/>
<path d="M79.8517 84.8548L80.0017 84.6992L80.1573 84.8492L80.0073 85.0048L79.8517 84.8548Z" fill="white"/>
<path d="M75.6766 84.9748L75.8266 84.8192L75.9822 84.9692L75.8322 85.1248L75.6766 84.9748Z" fill="white"/>
<path d="M84.1799 84.9752L84.3299 84.8196L84.4855 84.9696L84.3355 85.1252L84.1799 84.9752Z" fill="white"/>
<path d="M86.6157 83.9199L86.7657 83.7643L86.9213 83.9143L86.7713 84.0699L86.6157 83.9199Z" fill="white"/>
<path d="M73.1486 84.9296L73.2986 84.774L73.4542 84.924L73.3042 85.0796L73.1486 84.9296Z" fill="white"/>
<path d="M81.7754 84.9083L81.9254 84.7527L82.081 84.9027L81.931 85.0583L81.7754 84.9083Z" fill="white"/>
<path d="M88.6463 80.1261L88.7963 79.9705L88.9519 80.1205L88.8019 80.2761L88.6463 80.1261Z" fill="white"/>
<path d="M77.4445 84.8839L77.5945 84.7283L77.7501 84.8783L77.6001 85.0339L77.4445 84.8839Z" fill="white"/>
<path d="M63.6003 83.0516L63.7502 82.896L63.9058 83.046L63.7559 83.2015L63.6003 83.0516Z" fill="white"/>
<path d="M83.3751 83.147L83.5251 82.9914L83.6807 83.1414L83.5307 83.297L83.3751 83.147Z" fill="white"/>
<path d="M90.1425 78.2426L90.2925 78.087L90.4481 78.237L90.2981 78.3926L90.1425 78.2426Z" fill="white"/>
<path d="M61.0538 79.3077L61.2038 79.1521L61.3594 79.3021L61.2094 79.4577L61.0538 79.3077Z" fill="white"/>
<path d="M65.5032 84.839L65.6532 84.6834L65.8088 84.8333L65.6588 84.9889L65.5032 84.839Z" fill="white"/>
<path d="M70.18 86.511L70.33 86.3554L70.4856 86.5054L70.3356 86.661L70.18 86.511Z" fill="white"/>
<path d="M78.8364 86.7517L78.9864 86.5961L79.142 86.7461L78.992 86.9017L78.8364 86.7517Z" fill="white"/>
<path d="M74.5082 86.6314L74.6582 86.4758L74.8138 86.6258L74.6638 86.7814L74.5082 86.6314Z" fill="white"/>
<path d="M85.1953 83.0783L85.3452 82.9227L85.5008 83.0727L85.3508 83.2283L85.1953 83.0783Z" fill="white"/>
<path d="M62.6281 81.1674L62.7781 81.0118L62.9337 81.1617L62.7837 81.3173L62.6281 81.1674Z" fill="white"/>
<path d="M67.3347 84.9881L67.4847 84.8325L67.6403 84.9825L67.4903 85.138L67.3347 84.9881Z" fill="white"/>
<path d="M72.1037 86.5645L72.2537 86.4089L72.4093 86.5589L72.2593 86.7145L72.1037 86.5645Z" fill="white"/>
<path d="M80.7601 86.8052L80.9101 86.6496L81.0657 86.7996L80.9157 86.9552L80.7601 86.8052Z" fill="white"/>
<path d="M87.631 82.023L87.781 81.8674L87.9366 82.0174L87.7866 82.173L87.631 82.023Z" fill="white"/>
<path d="M76.4319 86.6849L76.5819 86.5293L76.7375 86.6793L76.5875 86.8348L76.4319 86.6849Z" fill="white"/>
<path d="M84.2334 83.0515L84.3834 82.8959L84.539 83.0459L84.389 83.2015L84.2334 83.0515Z" fill="white"/>
<path d="M66.3729 84.9613L66.5229 84.8057L66.6784 84.9557L66.5285 85.1113L66.3729 84.9613Z" fill="white"/>
<path d="M71.1419 86.5378L71.2918 86.3822L71.4474 86.5322L71.2975 86.6878L71.1419 86.5378Z" fill="white"/>
<path d="M79.7983 86.7785L79.9482 86.6229L80.1038 86.7729L79.9539 86.9285L79.7983 86.7785Z" fill="white"/>
<path d="M86.6692 81.9963L86.8192 81.8407L86.9748 81.9907L86.8248 82.1463L86.6692 81.9963Z" fill="white"/>
<path d="M75.4701 86.6581L75.62 86.5025L75.7756 86.6525L75.6257 86.8081L75.4701 86.6581Z" fill="white"/>
<path d="M86.1571 83.105L86.307 82.9494L86.4626 83.0994L86.3127 83.255L86.1571 83.105Z" fill="white"/>
<path d="M63.5899 81.1941L63.7399 81.0385L63.8955 81.1885L63.7455 81.3441L63.5899 81.1941Z" fill="white"/>
<path d="M68.2965 85.0148L68.4465 84.8592L68.6021 85.0092L68.4521 85.1648L68.2965 85.0148Z" fill="white"/>
<path d="M73.0655 86.5913L73.2155 86.4357L73.3711 86.5856L73.2211 86.7412L73.0655 86.5913Z" fill="white"/>
<path d="M81.7219 86.832L81.8719 86.6764L82.0275 86.8263L81.8775 86.9819L81.7219 86.832Z" fill="white"/>
<path d="M88.4182 82.0061L88.5682 81.8505L88.7238 82.0005L88.5738 82.1561L88.4182 82.0061Z" fill="white"/>
<path d="M77.3937 86.7116L77.5437 86.556L77.6993 86.706L77.5493 86.8616L77.3937 86.7116Z" fill="white"/>
<path d="M83.2583 83.5057L83.4082 83.3501L83.5638 83.5001L83.4138 83.6557L83.2583 83.5057Z" fill="white"/>
<path d="M90.3093 78.5681L90.4593 78.4125L90.6149 78.5625L90.4649 78.7181L90.3093 78.5681Z" fill="white"/>
<path d="M70.1667 86.9919L70.3167 86.8363L70.4723 86.9863L70.3223 87.1419L70.1667 86.9919Z" fill="white"/>
<path d="M78.8231 87.2326L78.9731 87.077L79.1287 87.227L78.9787 87.3826L78.8231 87.2326Z" fill="white"/>
<path d="M74.4949 87.1123L74.6449 86.9567L74.8005 87.1067L74.6505 87.2623L74.4949 87.1123Z" fill="white"/>
<path d="M85.1819 83.5592L85.3319 83.4036L85.4875 83.5536L85.3375 83.7092L85.1819 83.5592Z" fill="white"/>
<path d="M62.6674 81.5936L62.8174 81.4381L62.973 81.588L62.823 81.7436L62.6674 81.5936Z" fill="white"/>
<path d="M67.3213 85.469L67.4713 85.3134L67.6269 85.4634L67.4769 85.619L67.3213 85.469Z" fill="white"/>
<path d="M72.0903 87.0454L72.2403 86.8898L72.3959 87.0398L72.2459 87.1954L72.0903 87.0454Z" fill="white"/>
<path d="M80.7261 87.2089L80.8761 87.0533L81.0317 87.2033L80.8817 87.3589L80.7261 87.2089Z" fill="white"/>
<path d="M87.6177 82.5039L87.7676 82.3483L87.9232 82.4983L87.7732 82.6539L87.6177 82.5039Z" fill="white"/>
<path d="M76.4185 87.1658L76.5685 87.0102L76.7241 87.1602L76.5741 87.3158L76.4185 87.1658Z" fill="white"/>
<path d="M84.2201 83.5324L84.37 83.3768L84.5256 83.5268L84.3757 83.6824L84.2201 83.5324Z" fill="white"/>
<path d="M66.3595 85.4422L66.5095 85.2866L66.6651 85.4366L66.5151 85.5922L66.3595 85.4422Z" fill="white"/>
<path d="M71.1285 87.0187L71.2785 86.8631L71.4341 87.0131L71.2841 87.1687L71.1285 87.0187Z" fill="white"/>
<path d="M79.7849 87.2594L79.9349 87.1038L80.0905 87.2538L79.9405 87.4094L79.7849 87.2594Z" fill="white"/>
<path d="M86.6558 82.4772L86.8058 82.3216L86.9614 82.4716L86.8114 82.6272L86.6558 82.4772Z" fill="white"/>
<path d="M75.4567 87.139L75.6067 86.9834L75.7623 87.1334L75.6123 87.289L75.4567 87.139Z" fill="white"/>
<path d="M86.1437 83.5859L86.2937 83.4303L86.4493 83.5803L86.2993 83.7359L86.1437 83.5859Z" fill="white"/>
<path d="M63.5766 81.675L63.7266 81.5194L63.8822 81.6694L63.7322 81.825L63.5766 81.675Z" fill="white"/>
<path d="M68.2832 85.4957L68.4331 85.3401L68.5887 85.4901L68.4388 85.6457L68.2832 85.4957Z" fill="white"/>
<path d="M73.0522 87.0722L73.2021 86.9166L73.3577 87.0666L73.2077 87.2222L73.0522 87.0722Z" fill="white"/>
<path d="M77.3804 87.1925L77.5303 87.0369L77.6859 87.1869L77.5359 87.3425L77.3804 87.1925Z" fill="white"/>
<path d="M60.8448 78.1441L60.9948 77.9885L61.1504 78.1385L61.0004 78.2941L60.8448 78.1441Z" fill="white"/>
<path d="M65.4512 83.4918L65.6012 83.3362L65.7568 83.4862L65.6068 83.6418L65.4512 83.4918Z" fill="white"/>
<path d="M70.2202 85.0683L70.3701 84.9127L70.5257 85.0627L70.3758 85.2183L70.2202 85.0683Z" fill="white"/>
<path d="M78.8766 85.309L79.0265 85.1534L79.1821 85.3034L79.0322 85.459L78.8766 85.309Z" fill="white"/>
<path d="M74.5458 85.281L74.6958 85.1254L74.8514 85.2754L74.7014 85.431L74.5458 85.281Z" fill="white"/>
<path d="M83.2048 85.4293L83.3547 85.2737L83.5103 85.4237L83.3604 85.5793L83.2048 85.4293Z" fill="white"/>
<path d="M62.5564 79.8407L62.7064 79.6851L62.862 79.8351L62.712 79.9907L62.5564 79.8407Z" fill="white"/>
<path d="M67.3748 83.5453L67.5248 83.3897L67.6804 83.5397L67.5304 83.6953L67.3748 83.5453Z" fill="white"/>
<path d="M72.1438 85.1218L72.2938 84.9662L72.4494 85.1162L72.2994 85.2718L72.1438 85.1218Z" fill="white"/>
<path d="M80.8002 85.3625L80.9502 85.2069L81.1058 85.3569L80.9558 85.5125L80.8002 85.3625Z" fill="white"/>
<path d="M87.6711 80.5803L87.8211 80.4247L87.9767 80.5747L87.8267 80.7303L87.6711 80.5803Z" fill="white"/>
<path d="M76.472 85.2421L76.622 85.0865L76.7776 85.2365L76.6276 85.3921L76.472 85.2421Z" fill="white"/>
<path d="M90.9357 76.9256L91.0857 76.77L91.2413 76.92L91.0913 77.0756L90.9357 76.9256Z" fill="white"/>
<path d="M61.7064 79.6979L61.8564 79.5423L62.012 79.6923L61.862 79.8479L61.7064 79.6979Z" fill="white"/>
<path d="M66.413 83.5186L66.563 83.363L66.7186 83.513L66.5686 83.6686L66.413 83.5186Z" fill="white"/>
<path d="M71.182 85.095L71.332 84.9394L71.4876 85.0894L71.3376 85.245L71.182 85.095Z" fill="white"/>
<path d="M79.8384 85.3357L79.9884 85.1801L80.144 85.3301L79.994 85.4857L79.8384 85.3357Z" fill="white"/>
<path d="M75.5102 85.2154L75.6602 85.0598L75.8158 85.2098L75.6658 85.3654L75.5102 85.2154Z" fill="white"/>
<path d="M84.1666 85.4561L84.3166 85.3005L84.4722 85.4505L84.3222 85.6061L84.1666 85.4561Z" fill="white"/>
<path d="M86.1972 81.6623L86.3472 81.5067L86.5028 81.6567L86.3528 81.8123L86.1972 81.6623Z" fill="white"/>
<path d="M73.0373 85.2602L73.1872 85.1046L73.3428 85.2546L73.1929 85.4102L73.0373 85.2602Z" fill="white"/>
<path d="M81.762 85.3892L81.912 85.2336L82.0676 85.3836L81.9176 85.5392L81.762 85.3892Z" fill="white"/>
<path d="M88.633 80.607L88.7829 80.4514L88.9385 80.6014L88.7886 80.757L88.633 80.607Z" fill="white"/>
<path d="M77.4338 85.2689L77.5838 85.1133L77.7394 85.2633L77.5894 85.4189L77.4338 85.2689Z" fill="white"/>
<path d="M60.5101 77.1414L60.6601 76.9858L60.8157 77.1358L60.6657 77.2914L60.5101 77.1414Z" fill="white"/>
<path d="M65.41 82.5863L65.56 82.4307L65.7156 82.5807L65.5656 82.7363L65.41 82.5863Z" fill="white"/>
<path d="M79.0421 84.5924L79.1921 84.4368L79.3477 84.5868L79.1977 84.7424L79.0421 84.5924Z" fill="white"/>
<path d="M83.2315 84.4675L83.3815 84.3119L83.5371 84.4619L83.3871 84.6175L83.2315 84.4675Z" fill="white"/>
<path d="M74.4681 88.0741L74.6181 87.9185L74.7737 88.0685L74.6237 88.2241L74.4681 88.0741Z" fill="white"/>
<path d="M80.8269 84.4007L80.9769 84.2451L81.1325 84.395L80.9825 84.5506L80.8269 84.4007Z" fill="white"/>
<path d="M85.1551 84.521L85.3051 84.3654L85.4607 84.5154L85.3107 84.671L85.1551 84.521Z" fill="white"/>
<path d="M72.1062 87.8775L72.2561 87.7219L72.4117 87.8719L72.2618 88.0275L72.1062 87.8775Z" fill="white"/>
<path d="M76.3936 88.0616L76.5436 87.906L76.6992 88.0559L76.5492 88.2115L76.3936 88.0616Z" fill="white"/>
<path d="M61.4673 78.5522L61.6173 78.3966L61.7729 78.5465L61.6229 78.7021L61.4673 78.5522Z" fill="white"/>
<path d="M79.8777 84.4299L80.0277 84.2743L80.1833 84.4243L80.0333 84.5799L79.8777 84.4299Z" fill="white"/>
<path d="M84.1933 84.4943L84.3433 84.3387L84.4989 84.4887L84.3489 84.6443L84.1933 84.4943Z" fill="white"/>
<path d="M86.6291 83.439L86.7791 83.2834L86.9347 83.4334L86.7847 83.589L86.6291 83.439Z" fill="white"/>
<path d="M75.4299 88.1008L75.5799 87.9453L75.7355 88.0952L75.5855 88.2508L75.4299 88.1008Z" fill="white"/>
<path d="M81.7888 84.4274L81.9388 84.2718L82.0944 84.4218L81.9444 84.5774L81.7888 84.4274Z" fill="white"/>
<path d="M88.6597 79.6452L88.8097 79.4896L88.9653 79.6396L88.8153 79.7952L88.6597 79.6452Z" fill="white"/>
<path d="M86.0494 84.4002L86.1993 84.2446L86.3549 84.3946L86.205 84.5502L86.0494 84.4002Z" fill="white"/>
<path d="M63.5498 82.6368L63.6998 82.4812L63.8554 82.6312L63.7054 82.7868L63.5498 82.6368Z" fill="white"/>
<path d="M68.2564 86.4575L68.4064 86.3019L68.562 86.4519L68.412 86.6075L68.2564 86.4575Z" fill="white"/>
<path d="M73.0254 88.034L73.1754 87.8784L73.331 88.0284L73.181 88.184L73.0254 88.034Z" fill="white"/>
<path d="M77.5221 87.9473L77.6721 87.7917L77.8277 87.9417L77.6777 88.0973L77.5221 87.9473Z" fill="white"/>
<path d="M90.1559 77.7617L90.3059 77.6061L90.4615 77.7561L90.3115 77.9117L90.1559 77.7617Z" fill="white"/>
<path d="M60.8705 78.9178L61.0205 78.7622L61.1761 78.9122L61.0261 79.0678L60.8705 78.9178Z" fill="white"/>
<path d="M65.4244 84.4537L65.5744 84.2981L65.73 84.4481L65.58 84.6036L65.4244 84.4537Z" fill="white"/>
<path d="M70.1934 86.0301L70.3434 85.8745L70.499 86.0245L70.349 86.1801L70.1934 86.0301Z" fill="white"/>
<path d="M78.8498 86.2708L78.9998 86.1152L79.1554 86.2652L79.0054 86.4208L78.8498 86.2708Z" fill="white"/>
<path d="M74.5216 86.1505L74.6716 85.9949L74.8272 86.1449L74.6772 86.3004L74.5216 86.1505Z" fill="white"/>
<path d="M83.0573 86.2748L83.2073 86.1192L83.3629 86.2692L83.2129 86.4248L83.0573 86.2748Z" fill="white"/>
<path d="M85.2086 82.5974L85.3586 82.4418L85.5142 82.5918L85.3642 82.7474L85.2086 82.5974Z" fill="white"/>
<path d="M62.6415 80.6864L62.7915 80.5309L62.9471 80.6808L62.7971 80.8364L62.6415 80.6864Z" fill="white"/>
<path d="M67.3481 84.5072L67.4981 84.3516L67.6537 84.5015L67.5037 84.6571L67.3481 84.5072Z" fill="white"/>
<path d="M72.1171 86.0836L72.2671 85.928L72.4227 86.078L72.2727 86.2336L72.1171 86.0836Z" fill="white"/>
<path d="M80.7734 86.3243L80.9234 86.1687L81.079 86.3187L80.929 86.4743L80.7734 86.3243Z" fill="white"/>
<path d="M87.6444 81.5421L87.7944 81.3865L87.95 81.5365L87.8 81.6921L87.6444 81.5421Z" fill="white"/>
<path d="M76.4453 86.204L76.5953 86.0484L76.7509 86.1983L76.6009 86.3539L76.4453 86.204Z" fill="white"/>
<path d="M84.3577 82.6776L84.5077 82.522L84.6633 82.6719L84.5133 82.8275L84.3577 82.6776Z" fill="white"/>
<path d="M61.7546 80.5819L61.9046 80.4263L62.0602 80.5763L61.9102 80.7319L61.7546 80.5819Z" fill="white"/>
<path d="M66.3862 84.4804L66.5362 84.3248L66.6918 84.4748L66.5418 84.6304L66.3862 84.4804Z" fill="white"/>
<path d="M71.1552 86.0569L71.3052 85.9013L71.4608 86.0512L71.3108 86.2068L71.1552 86.0569Z" fill="white"/>
<path d="M79.8116 86.2976L79.9616 86.142L80.1172 86.2919L79.9672 86.4475L79.8116 86.2976Z" fill="white"/>
<path d="M86.6826 81.5154L86.8326 81.3598L86.9882 81.5097L86.8382 81.6653L86.6826 81.5154Z" fill="white"/>
<path d="M75.4834 86.1772L75.6334 86.0216L75.789 86.1716L75.639 86.3272L75.4834 86.1772Z" fill="white"/>
<path d="M91.2183 75.8828L91.2871 75.722L91.4427 75.872L91.3281 75.9672L91.2183 75.8828Z" fill="white"/>
<path d="M86.1704 82.6241L86.3204 82.4685L86.476 82.6185L86.326 82.7741L86.1704 82.6241Z" fill="white"/>
<path d="M63.4396 80.8555L63.5896 80.6999L63.7452 80.8499L63.5952 81.0055L63.4396 80.8555Z" fill="white"/>
<path d="M68.3099 84.5339L68.4599 84.3783L68.6155 84.5283L68.4655 84.6839L68.3099 84.5339Z" fill="white"/>
<path d="M73.0789 86.1103L73.2289 85.9547L73.3845 86.1047L73.2345 86.2603L73.0789 86.1103Z" fill="white"/>
<path d="M81.7353 86.351L81.8853 86.1954L82.0409 86.3454L81.8909 86.501L81.7353 86.351Z" fill="white"/>
<path d="M88.6062 81.5688L88.7562 81.4133L88.9118 81.5632L88.7618 81.7188L88.6062 81.5688Z" fill="white"/>
<path d="M77.4071 86.2307L77.5571 86.0751L77.7127 86.2251L77.5627 86.3807L77.4071 86.2307Z" fill="white"/>
<path d="M59.9782 76.6158L60.1282 76.4602L60.2838 76.6102L60.1338 76.7658L59.9782 76.6158Z" fill="white"/>
<path d="M64.5295 82.0224L64.6795 81.8668L64.8351 82.0168L64.6851 82.1723L64.5295 82.0224Z" fill="white"/>
<path d="M82.2831 83.9599L82.433 83.8043L82.5886 83.9543L82.4387 84.1099L82.2831 83.9599Z" fill="white"/>
<path d="M89.2665 79.2273L89.4165 79.0717L89.5721 79.2217L89.4221 79.3773L89.2665 79.2273Z" fill="white"/>
<path d="M77.8479 87.6868L77.9979 87.5312L78.1535 87.6812L78.0035 87.8368L77.8479 87.6868Z" fill="white"/>
<path d="M73.5197 87.5665L73.6697 87.4109L73.8253 87.5608L73.6753 87.7164L73.5197 87.5665Z" fill="white"/>
<path d="M64.476 83.946L64.626 83.7904L64.7816 83.9404L64.6316 84.096L64.476 83.946Z" fill="white"/>
<path d="M69.245 85.5225L69.395 85.3669L69.5506 85.5168L69.4006 85.6724L69.245 85.5225Z" fill="white"/>
<path d="M77.9014 85.7632L78.0514 85.6076L78.207 85.7575L78.057 85.9131L77.9014 85.7632Z" fill="white"/>
<path d="M73.5732 85.6428L73.7232 85.4872L73.8788 85.6372L73.7288 85.7928L73.5732 85.6428Z" fill="white"/>
<path d="M82.2296 85.8835L82.3796 85.7279L82.5352 85.8779L82.3852 86.0335L82.2296 85.8835Z" fill="white"/>
<path d="M89.0436 81.0465L89.1936 80.8909L89.3492 81.0409L89.1992 81.1965L89.0436 81.0465Z" fill="white"/>
<path d="M64.5027 82.9842L64.6527 82.8286L64.8083 82.9786L64.6583 83.1342L64.5027 82.9842Z" fill="white"/>
<path d="M69.2717 84.5606L69.4217 84.405L69.5773 84.555L69.4273 84.7106L69.2717 84.5606Z" fill="white"/>
<path d="M77.9281 84.8013L78.0781 84.6457L78.2337 84.7957L78.0837 84.9513L77.9281 84.8013Z" fill="white"/>
<path d="M73.6758 84.9898L73.8258 84.8342L73.9814 84.9842L73.8314 85.1398L73.6758 84.9898Z" fill="white"/>
<path d="M82.2563 84.9217L82.4063 84.7661L82.5619 84.9161L82.4119 85.0717L82.2563 84.9217Z" fill="white"/>
<path d="M89.1272 80.1395L89.2772 79.9839L89.4328 80.1339L89.2828 80.2895L89.1272 80.1395Z" fill="white"/>
<path d="M59.7937 75.6199L59.9437 75.4643L60.0992 75.6143L59.9493 75.7699L59.7937 75.6199Z" fill="white"/>
<path d="M69.2182 86.4843L69.3682 86.3287L69.5238 86.4787L69.3738 86.6343L69.2182 86.4843Z" fill="white"/>
<path d="M77.8746 86.725L78.0246 86.5694L78.1802 86.7194L78.0302 86.875L77.8746 86.725Z" fill="white"/>
<path d="M73.5464 86.6046L73.6964 86.449L73.852 86.599L73.702 86.7546L73.5464 86.6046Z" fill="white"/>
<path d="M82.0724 86.7196L82.2224 86.564L82.378 86.714L82.228 86.8696L82.0724 86.7196Z" fill="white"/>
<path d="M59.9924 76.1067L60.1423 75.9511L60.2979 76.1011L60.148 76.2567L59.9924 76.1067Z" fill="white"/>
<path d="M64.4576 81.5833L64.6076 81.4277L64.7632 81.5777L64.6132 81.7333L64.4576 81.5833Z" fill="white"/>
<path d="M82.4067 83.5853L82.5567 83.4297L82.7123 83.5797L82.5623 83.7352L82.4067 83.5853Z" fill="white"/>
<path d="M89.3259 78.7392L89.4759 78.5836L89.6315 78.7336L89.4815 78.8892L89.3259 78.7392Z" fill="white"/>
<path d="M69.2049 86.9652L69.3548 86.8096L69.5104 86.9596L69.3605 87.1152L69.2049 86.9652Z" fill="white"/>
<path d="M77.8613 87.2059L78.0112 87.0503L78.1668 87.2003L78.0169 87.3559L77.8613 87.2059Z" fill="white"/>
<path d="M73.5331 87.0855L73.683 86.9299L73.8386 87.0799L73.6887 87.2355L73.5331 87.0855Z" fill="white"/>
<path d="M64.4894 83.4651L64.6393 83.3095L64.7949 83.4595L64.645 83.6151L64.4894 83.4651Z" fill="white"/>
<path d="M69.2583 85.0416L69.4083 84.886L69.5639 85.0359L69.4139 85.1915L69.2583 85.0416Z" fill="white"/>
<path d="M77.9147 85.2823L78.0647 85.1267L78.2203 85.2766L78.0703 85.4322L77.9147 85.2823Z" fill="white"/>
<path d="M73.5226 85.2596L73.6726 85.104L73.8282 85.2539L73.6782 85.4095L73.5226 85.2596Z" fill="white"/>
<path d="M82.2429 85.4026L82.3929 85.247L82.5485 85.397L82.3985 85.5526L82.2429 85.4026Z" fill="white"/>
<path d="M89.1139 80.6204L89.2638 80.4648L89.4194 80.6148L89.2695 80.7704L89.1139 80.6204Z" fill="white"/>
<path d="M60.1129 77.0099L60.2629 76.8543L60.4185 77.0042L60.2685 77.1598L60.1129 77.0099Z" fill="white"/>
<path d="M64.5161 82.5033L64.6661 82.3477L64.8217 82.4977L64.6717 82.6533L64.5161 82.5033Z" fill="white"/>
<path d="M69.2829 84.1583L69.4329 84.0027L69.5885 84.1527L69.4385 84.3083L69.2829 84.1583Z" fill="white"/>
<path d="M82.2697 84.4408L82.4197 84.2852L82.5753 84.4352L82.4253 84.5908L82.2697 84.4408Z" fill="white"/>
<path d="M89.1406 79.6586L89.2906 79.503L89.4462 79.653L89.2962 79.8086L89.1406 79.6586Z" fill="white"/>
<path d="M73.5063 88.0474L73.6563 87.8918L73.8119 88.0417L73.6619 88.1973L73.5063 88.0474Z" fill="white"/>
<path d="M69.2316 86.0034L69.3816 85.8478L69.5372 85.9978L69.3872 86.1534L69.2316 86.0034Z" fill="white"/>
<path d="M77.888 86.2441L78.038 86.0885L78.1936 86.2385L78.0436 86.3941L77.888 86.2441Z" fill="white"/>
<path d="M73.5598 86.1237L73.7098 85.9681L73.8654 86.1181L73.7154 86.2737L73.5598 86.1237Z" fill="white"/>
<path d="M82.2451 86.2522L82.3951 86.0966L82.5507 86.2466L82.4007 86.4022L82.2451 86.2522Z" fill="white"/>
<path d="M60.344 76.77L60.494 76.6144L60.6496 76.7644L60.4996 76.92L60.344 76.77Z" fill="white"/>
<path d="M65.0015 82.3563L65.1515 82.2007L65.307 82.3507L65.1571 82.5063L65.0015 82.3563Z" fill="white"/>
<path d="M82.7551 84.2938L82.905 84.1382L83.0606 84.2882L82.9107 84.4438L82.7551 84.2938Z" fill="white"/>
<path d="M89.7385 79.5613L89.8885 79.4057L90.0441 79.5557L89.8941 79.7113L89.7385 79.5613Z" fill="white"/>
<path d="M78.2105 87.8419L78.3605 87.6863L78.5161 87.8363L78.3661 87.9919L78.2105 87.8419Z" fill="white"/>
<path d="M73.9917 87.9004L74.1417 87.7448L74.2973 87.8948L74.1473 88.0504L73.9917 87.9004Z" fill="white"/>
<path d="M64.0397 82.3296L64.1896 82.174L64.3452 82.324L64.1952 82.4796L64.0397 82.3296Z" fill="white"/>
<path d="M68.8064 83.9853L68.9564 83.8297L69.112 83.9797L68.962 84.1353L68.8064 83.9853Z" fill="white"/>
<path d="M80.363 84.2837L80.513 84.1281L80.6686 84.278L80.5186 84.4336L80.363 84.2837Z" fill="white"/>
<path d="M84.6787 84.3473L84.8287 84.1917L84.9843 84.3417L84.8343 84.4973L84.6787 84.3473Z" fill="white"/>
<path d="M71.6035 87.7539L71.7535 87.5983L71.9091 87.7483L71.7591 87.9039L71.6035 87.7539Z" fill="white"/>
<path d="M87.1145 83.2921L87.2644 83.1365L87.42 83.2865L87.2701 83.4421L87.1145 83.2921Z" fill="white"/>
<path d="M75.9153 87.9539L76.0653 87.7983L76.2209 87.9483L76.0709 88.1039L75.9153 87.9539Z" fill="white"/>
<path d="M83.7169 84.3206L83.8669 84.165L84.0224 84.315L83.8725 84.4706L83.7169 84.3206Z" fill="white"/>
<path d="M66.7808 83.0909L66.9308 82.9353L67.0864 83.0853L66.9364 83.2409L66.7808 83.0909Z" fill="white"/>
<path d="M74.9535 87.9272L75.1035 87.7716L75.2591 87.9216L75.1091 88.0772L74.9535 87.9272Z" fill="white"/>
<path d="M81.3123 84.2537L81.4623 84.0981L81.6179 84.2481L81.4679 84.4037L81.3123 84.2537Z" fill="white"/>
<path d="M85.6405 84.3741L85.7905 84.2185L85.9461 84.3685L85.7961 84.5241L85.6405 84.3741Z" fill="white"/>
<path d="M63.0734 82.4632L63.2234 82.3076L63.379 82.4575L63.229 82.6131L63.0734 82.4632Z" fill="white"/>
<path d="M67.78 86.2839L67.93 86.1283L68.0855 86.2782L67.9356 86.4338L67.78 86.2839Z" fill="white"/>
<path d="M72.549 87.8603L72.6989 87.7047L72.8545 87.8547L72.7046 88.0103L72.549 87.8603Z" fill="white"/>
<path d="M76.8772 87.9807L77.0271 87.8251L77.1827 87.9751L77.0328 88.1307L76.8772 87.9807Z" fill="white"/>
<path d="M64.948 84.28L65.098 84.1244L65.2536 84.2744L65.1036 84.43L64.948 84.28Z" fill="white"/>
<path d="M69.717 85.8564L69.867 85.7008L70.0225 85.8508L69.8726 86.0064L69.717 85.8564Z" fill="white"/>
<path d="M78.3734 86.0971L78.5234 85.9415L78.6789 86.0915L78.529 86.2471L78.3734 86.0971Z" fill="white"/>
<path d="M74.0452 85.9768L74.1952 85.8212L74.3507 85.9712L74.2008 86.1268L74.0452 85.9768Z" fill="white"/>
<path d="M82.5872 86.4074L82.7372 86.2518L82.8928 86.4018L82.7428 86.5574L82.5872 86.4074Z" fill="white"/>
<path d="M59.6416 75.0205L59.6981 74.8789L59.8111 74.9928L59.7493 75.1367L59.6416 75.0205Z" fill="white"/>
<path d="M68.7552 85.8297L68.9051 85.6741L69.0607 85.8241L68.9107 85.9797L68.7552 85.8297Z" fill="white"/>
<path d="M84.7706 82.4607L84.9206 82.3051L85.0762 82.4551L84.9262 82.6107L84.7706 82.4607Z" fill="white"/>
<path d="M62.1651 80.5128L62.315 80.3572L62.4706 80.5072L62.3207 80.6628L62.1651 80.5128Z" fill="white"/>
<path d="M66.8716 84.3335L67.0216 84.1779L67.1772 84.3279L67.0272 84.4835L66.8716 84.3335Z" fill="white"/>
<path d="M71.6406 85.9099L71.7906 85.7543L71.9462 85.9043L71.7962 86.0599L71.6406 85.9099Z" fill="white"/>
<path d="M80.297 86.1506L80.447 85.995L80.6026 86.145L80.4526 86.3006L80.297 86.1506Z" fill="white"/>
<path d="M87.1679 81.3684L87.3179 81.2128L87.4735 81.3628L87.3235 81.5184L87.1679 81.3684Z" fill="white"/>
<path d="M75.9688 86.0303L76.1188 85.8747L76.2744 86.0247L76.1244 86.1803L75.9688 86.0303Z" fill="white"/>
<path d="M90.6413 77.6147L90.7913 77.4592L90.9469 77.6091L90.7969 77.7647L90.6413 77.6147Z" fill="white"/>
<path d="M61.2478 78.883L61.3978 78.7274L61.5534 78.8774L61.4034 79.033L61.2478 78.883Z" fill="white"/>
<path d="M65.9098 84.3067L66.0598 84.1511L66.2154 84.3011L66.0654 84.4567L65.9098 84.3067Z" fill="white"/>
<path d="M70.6788 85.8832L70.8288 85.7276L70.9844 85.8776L70.8344 86.0332L70.6788 85.8832Z" fill="white"/>
<path d="M79.3352 86.1239L79.4852 85.9683L79.6408 86.1183L79.4908 86.2739L79.3352 86.1239Z" fill="white"/>
<path d="M75.007 86.0035L75.157 85.8479L75.3126 85.9979L75.1626 86.1535L75.007 86.0035Z" fill="white"/>
<path d="M83.5088 86.0591L83.6587 85.9035L83.8143 86.0535L83.6644 86.2091L83.5088 86.0591Z" fill="white"/>
<path d="M85.694 82.4504L85.844 82.2948L85.9996 82.4448L85.8496 82.6004L85.694 82.4504Z" fill="white"/>
<path d="M63.1269 80.5395L63.2769 80.3839L63.4325 80.5339L63.2825 80.6895L63.1269 80.5395Z" fill="white"/>
<path d="M67.8335 84.3602L67.9834 84.2046L68.139 84.3546L67.9891 84.5102L67.8335 84.3602Z" fill="white"/>
<path d="M72.6024 85.9367L72.7524 85.7811L72.908 85.9311L72.758 86.0867L72.6024 85.9367Z" fill="white"/>
<path d="M81.2588 86.1774L81.4088 86.0218L81.5644 86.1718L81.4144 86.3274L81.2588 86.1774Z" fill="white"/>
<path d="M88.1298 81.3952L88.2797 81.2396L88.4353 81.3896L88.2854 81.5452L88.1298 81.3952Z" fill="white"/>
<path d="M76.9306 86.057L77.0806 85.9014L77.2362 86.0514L77.0862 86.207L76.9306 86.057Z" fill="white"/>
<path d="M60.4488 77.7532L60.5988 77.5976L60.7544 77.7476L60.6044 77.9032L60.4488 77.7532Z" fill="white"/>
<path d="M64.9747 83.3182L65.1247 83.1626L65.2803 83.3126L65.1303 83.4681L64.9747 83.3182Z" fill="white"/>
<path d="M69.7437 84.8946L69.8937 84.739L70.0493 84.889L69.8993 85.0446L69.7437 84.8946Z" fill="white"/>
<path d="M78.4001 85.1353L78.5501 84.9797L78.7057 85.1297L78.5557 85.2853L78.4001 85.1353Z" fill="white"/>
<path d="M74.0719 85.015L74.2219 84.8594L74.3775 85.0094L74.2275 85.165L74.0719 85.015Z" fill="white"/>
<path d="M82.7283 85.2557L82.8783 85.1001L83.0339 85.2501L82.8839 85.4057L82.7283 85.2557Z" fill="white"/>
<path d="M89.4417 80.3915L89.5917 80.2359L89.7473 80.3859L89.5973 80.5415L89.4417 80.3915Z" fill="white"/>
<path d="M64.0129 83.2914L64.1629 83.1358L64.3185 83.2858L64.1685 83.4414L64.0129 83.2914Z" fill="white"/>
<path d="M68.7819 84.8679L68.9319 84.7123L69.0875 84.8623L68.9375 85.0179L68.7819 84.8679Z" fill="white"/>
<path d="M62.1918 79.551L62.3418 79.3954L62.4974 79.5453L62.3474 79.7009L62.1918 79.551Z" fill="white"/>
<path d="M66.8234 83.4495L66.9734 83.2939L67.129 83.4438L66.979 83.5994L66.8234 83.4495Z" fill="white"/>
<path d="M71.6674 84.9481L71.8174 84.7925L71.973 84.9425L71.823 85.0981L71.6674 84.9481Z" fill="white"/>
<path d="M80.3237 85.1888L80.4737 85.0332L80.6293 85.1832L80.4793 85.3388L80.3237 85.1888Z" fill="white"/>
<path d="M75.9955 85.0685L76.1455 84.9129L76.3011 85.0628L76.1511 85.2184L75.9955 85.0685Z" fill="white"/>
<path d="M84.6519 85.3092L84.8019 85.1536L84.9575 85.3035L84.8075 85.4591L84.6519 85.3092Z" fill="white"/>
<path d="M60.9999 77.8026L61.1499 77.647L61.3055 77.797L61.1555 77.9526L60.9999 77.8026Z" fill="white"/>
<path d="M65.9365 83.3449L66.0865 83.1893L66.2421 83.3393L66.0921 83.4949L65.9365 83.3449Z" fill="white"/>
<path d="M70.7055 84.9214L70.8555 84.7658L71.0111 84.9157L70.8611 85.0713L70.7055 84.9214Z" fill="white"/>
<path d="M79.3619 85.1621L79.5119 85.0065L79.6675 85.1564L79.5175 85.312L79.3619 85.1621Z" fill="white"/>
<path d="M75.0337 85.0417L75.1837 84.8861L75.3393 85.0361L75.1893 85.1917L75.0337 85.0417Z" fill="white"/>
<path d="M83.6901 85.2824L83.8401 85.1268L83.9957 85.2768L83.8457 85.4324L83.6901 85.2824Z" fill="white"/>
<path d="M67.7944 83.5356L67.9444 83.38L68.1 83.53L67.95 83.6856L67.7944 83.5356Z" fill="white"/>
<path d="M72.6292 84.9749L72.7792 84.8193L72.9348 84.9692L72.7848 85.1248L72.6292 84.9749Z" fill="white"/>
<path d="M81.2856 85.2155L81.4355 85.06L81.5911 85.2099L81.4412 85.3655L81.2856 85.2155Z" fill="white"/>
<path d="M88.1565 80.4334L88.3065 80.2778L88.4621 80.4277L88.3121 80.5833L88.1565 80.4334Z" fill="white"/>
<path d="M76.9574 85.0952L77.1074 84.9396L77.263 85.0896L77.113 85.2452L76.9574 85.0952Z" fill="white"/>
<path d="M59.9035 76.3502L60.0535 76.1946L60.2091 76.3446L60.0591 76.5002L59.9035 76.3502Z" fill="white"/>
<path d="M82.831 83.4373L82.981 83.2817L83.1366 83.4317L82.9866 83.5873L82.831 83.4373Z" fill="white"/>
<path d="M89.8578 78.6083L90.0078 78.4527L90.1634 78.6027L90.0134 78.7583L89.8578 78.6083Z" fill="white"/>
<path d="M69.6902 86.8183L69.8402 86.6627L69.9958 86.8126L69.8458 86.9682L69.6902 86.8183Z" fill="white"/>
<path d="M78.3466 87.059L78.4966 86.9034L78.6522 87.0533L78.5022 87.2089L78.3466 87.059Z" fill="white"/>
<path d="M74.0184 86.9386L74.1684 86.783L74.324 86.933L74.174 87.0886L74.0184 86.9386Z" fill="white"/>
<path d="M59.7991 75.9416L59.9491 75.786L60.1047 75.936L59.9547 76.0916L59.7991 75.9416Z" fill="white"/>
<path d="M64.0664 81.3678L64.2164 81.2122L64.372 81.3622L64.222 81.5178L64.0664 81.3678Z" fill="white"/>
<path d="M68.7284 86.7915L68.8784 86.6359L69.034 86.7859L68.884 86.9415L68.7284 86.7915Z" fill="white"/>
<path d="M84.7054 83.3855L84.8554 83.2299L85.011 83.3799L84.861 83.5355L84.7054 83.3855Z" fill="white"/>
<path d="M66.8449 85.2953L66.9949 85.1397L67.1505 85.2897L67.0005 85.4453L66.8449 85.2953Z" fill="white"/>
<path d="M71.6139 86.8717L71.7639 86.7162L71.9195 86.8661L71.7695 87.0217L71.6139 86.8717Z" fill="white"/>
<path d="M80.2703 87.1124L80.4202 86.9568L80.5758 87.1068L80.4258 87.2624L80.2703 87.1124Z" fill="white"/>
<path d="M87.1412 82.3303L87.2912 82.1747L87.4468 82.3246L87.2968 82.4802L87.1412 82.3303Z" fill="white"/>
<path d="M75.9421 86.9921L76.092 86.8365L76.2476 86.9865L76.0976 87.1421L75.9421 86.9921Z" fill="white"/>
<path d="M83.7436 83.3588L83.8936 83.2032L84.0492 83.3532L83.8992 83.5088L83.7436 83.3588Z" fill="white"/>
<path d="M61.296 79.767L61.446 79.6114L61.6016 79.7614L61.4516 79.917L61.296 79.767Z" fill="white"/>
<path d="M65.958 85.1908L66.108 85.0352L66.2636 85.1851L66.1136 85.3407L65.958 85.1908Z" fill="white"/>
<path d="M70.652 86.845L70.802 86.6894L70.9576 86.8394L70.8076 86.995L70.652 86.845Z" fill="white"/>
<path d="M79.3084 87.0857L79.4584 86.9301L79.614 87.0801L79.464 87.2357L79.3084 87.0857Z" fill="white"/>
<path d="M74.9802 86.9654L75.1302 86.8098L75.2858 86.9597L75.1358 87.1153L74.9802 86.9654Z" fill="white"/>
<path d="M90.8283 76.6574L90.9783 76.5018L91.1339 76.6518L90.9839 76.8074L90.8283 76.6574Z" fill="white"/>
<path d="M85.6672 83.4123L85.8172 83.2567L85.9728 83.4066L85.8228 83.5622L85.6672 83.4123Z" fill="white"/>
<path d="M63.1001 81.5013L63.2501 81.3457L63.4057 81.4957L63.2557 81.6513L63.1001 81.5013Z" fill="white"/>
<path d="M67.8067 85.322L67.9567 85.1664L68.1123 85.3164L67.9623 85.472L67.8067 85.322Z" fill="white"/>
<path d="M72.5757 86.8985L72.7257 86.7429L72.8813 86.8929L72.7313 87.0485L72.5757 86.8985Z" fill="white"/>
<path d="M81.2342 87.0633L81.3842 86.9077L81.5398 87.0576L81.3898 87.2132L81.2342 87.0633Z" fill="white"/>
<path d="M88.103 82.357L88.253 82.2014L88.4086 82.3514L88.2586 82.507L88.103 82.357Z" fill="white"/>
<path d="M76.9039 87.0188L77.0539 86.8632L77.2095 87.0132L77.0595 87.1688L76.9039 87.0188Z" fill="white"/>
<path d="M60.18 76.4476L60.33 76.292L60.4856 76.4419L60.3356 76.5975L60.18 76.4476Z" fill="white"/>
<path d="M64.9398 81.9532L65.0898 81.7976L65.2454 81.9476L65.0954 82.1032L64.9398 81.9532Z" fill="white"/>
<path d="M82.7684 83.8129L82.9184 83.6573L83.074 83.8073L82.924 83.9629L82.7684 83.8129Z" fill="white"/>
<path d="M89.6393 79.0307L89.7893 78.8751L89.9449 79.0251L89.7949 79.1807L89.6393 79.0307Z" fill="white"/>
<path d="M69.7294 87.2082L69.8794 87.0526L70.035 87.2026L69.885 87.3582L69.7294 87.2082Z" fill="white"/>
<path d="M78.3333 87.5399L78.4832 87.3843L78.6388 87.5343L78.4888 87.6899L78.3333 87.5399Z" fill="white"/>
<path d="M74.0051 87.4195L74.155 87.2639L74.3106 87.4139L74.1606 87.5695L74.0051 87.4195Z" fill="white"/>
<path d="M64.053 81.8487L64.203 81.6931L64.3586 81.8431L64.2086 81.9987L64.053 81.8487Z" fill="white"/>
<path d="M84.6921 83.8664L84.842 83.7108L84.9976 83.8608L84.8477 84.0164L84.6921 83.8664Z" fill="white"/>
<path d="M66.8315 85.7762L66.9815 85.6206L67.1371 85.7706L66.9871 85.9262L66.8315 85.7762Z" fill="white"/>
<path d="M71.6005 87.3527L71.7505 87.1971L71.9061 87.347L71.7561 87.5026L71.6005 87.3527Z" fill="white"/>
<path d="M80.1616 87.3898L80.3116 87.2342L80.4672 87.3842L80.3172 87.5398L80.1616 87.3898Z" fill="white"/>
<path d="M87.1278 82.8112L87.2778 82.6556L87.4334 82.8056L87.2834 82.9611L87.1278 82.8112Z" fill="white"/>
<path d="M75.9287 87.473L76.0787 87.3174L76.2343 87.4674L76.0843 87.623L75.9287 87.473Z" fill="white"/>
<path d="M83.7302 83.8397L83.8802 83.6841L84.0358 83.8341L83.8858 83.9897L83.7302 83.8397Z" fill="white"/>
<path d="M70.671 87.2196L70.821 87.064L70.9766 87.214L70.8266 87.3696L70.671 87.2196Z" fill="white"/>
<path d="M79.2951 87.5666L79.4451 87.411L79.6006 87.561L79.4507 87.7166L79.2951 87.5666Z" fill="white"/>
<path d="M74.9669 87.4463L75.1168 87.2907L75.2724 87.4407L75.1225 87.5963L74.9669 87.4463Z" fill="white"/>
<path d="M81.4138 83.9357L81.5638 83.7801L81.7194 83.9301L81.5694 84.0857L81.4138 83.9357Z" fill="white"/>
<path d="M85.6539 83.8932L85.8039 83.7376L85.9594 83.8876L85.8095 84.0432L85.6539 83.8932Z" fill="white"/>
<path d="M63.0868 81.9822L63.2367 81.8267L63.3923 81.9766L63.2424 82.1322L63.0868 81.9822Z" fill="white"/>
<path d="M67.7933 85.803L67.9433 85.6474L68.0989 85.7973L67.9489 85.9529L67.7933 85.803Z" fill="white"/>
<path d="M72.5623 87.3794L72.7123 87.2238L72.8679 87.3738L72.7179 87.5294L72.5623 87.3794Z" fill="white"/>
<path d="M76.8905 87.4998L77.0405 87.3442L77.1961 87.4941L77.0461 87.6497L76.8905 87.4998Z" fill="white"/>
<path d="M60.5229 78.0874L60.6729 77.9318L60.8285 78.0818L60.6785 78.2374L60.5229 78.0874Z" fill="white"/>
<path d="M64.9613 83.7991L65.1113 83.6435L65.2669 83.7935L65.1169 83.9491L64.9613 83.7991Z" fill="white"/>
<path d="M69.7303 85.3755L69.8803 85.2199L70.0359 85.3699L69.8859 85.5255L69.7303 85.3755Z" fill="white"/>
<path d="M78.3867 85.6162L78.5367 85.4606L78.6923 85.6106L78.5423 85.7662L78.3867 85.6162Z" fill="white"/>
<path d="M74.0585 85.4959L74.2085 85.3403L74.3641 85.4903L74.2141 85.6459L74.0585 85.4959Z" fill="white"/>
<path d="M82.6969 85.8767L82.8469 85.7211L83.0025 85.8711L82.8525 86.0267L82.6969 85.8767Z" fill="white"/>
<path d="M59.5344 74.595L59.6068 74.5157L59.6544 74.5582L59.6023 74.6783L59.5344 74.595Z" fill="white"/>
<path d="M64.144 83.6714L64.294 83.5158L64.4496 83.6658L64.2996 83.8214L64.144 83.6714Z" fill="white"/>
<path d="M68.7685 85.3488L68.9185 85.1932L69.0741 85.3432L68.9241 85.4988L68.7685 85.3488Z" fill="white"/>
<path d="M62.1784 80.0319L62.3284 79.8763L62.484 80.0263L62.334 80.1818L62.1784 80.0319Z" fill="white"/>
<path d="M66.885 83.8526L67.035 83.697L67.1906 83.847L67.0406 84.0025L66.885 83.8526Z" fill="white"/>
<path d="M71.654 85.429L71.804 85.2734L71.9596 85.4234L71.8096 85.579L71.654 85.429Z" fill="white"/>
<path d="M80.3104 85.6697L80.4604 85.5141L80.6159 85.6641L80.466 85.8197L80.3104 85.6697Z" fill="white"/>
<path d="M87.1813 80.8875L87.3313 80.7319L87.4869 80.8819L87.3369 81.0375L87.1813 80.8875Z" fill="white"/>
<path d="M75.9822 85.5494L76.1322 85.3938L76.2877 85.5438L76.1378 85.6994L75.9822 85.5494Z" fill="white"/>
<path d="M90.6546 77.1338L90.8046 76.9782L90.9602 77.1282L90.8102 77.2838L90.6546 77.1338Z" fill="white"/>
<path d="M61.116 78.3826L61.266 78.227L61.4216 78.377L61.2716 78.5326L61.116 78.3826Z" fill="white"/>
<path d="M65.9232 83.8258L66.0731 83.6702L66.2287 83.8202L66.0788 83.9758L65.9232 83.8258Z" fill="white"/>
<path d="M70.6922 85.4023L70.8421 85.2467L70.9977 85.3967L70.8478 85.5523L70.6922 85.4023Z" fill="white"/>
<path d="M79.3486 85.643L79.4985 85.4874L79.6541 85.6374L79.5042 85.793L79.3486 85.643Z" fill="white"/>
<path d="M75.0204 85.5226L75.1703 85.367L75.3259 85.517L75.176 85.6726L75.0204 85.5226Z" fill="white"/>
<path d="M83.6768 85.7633L83.8267 85.6077L83.9823 85.7577L83.8323 85.9133L83.6768 85.7633Z" fill="white"/>
<path d="M91.1127 76.1381L91.2627 75.9825L91.4183 76.1325L91.2683 76.2881L91.1127 76.1381Z" fill="white"/>
<path d="M85.7074 81.9695L85.8573 81.8139L86.0129 81.9639L85.863 82.1195L85.7074 81.9695Z" fill="white"/>
<path d="M67.8468 83.8793L67.9968 83.7237L68.1524 83.8737L68.0024 84.0293L67.8468 83.8793Z" fill="white"/>
<path d="M72.6158 85.4558L72.7658 85.3002L72.9214 85.4502L72.7714 85.6057L72.6158 85.4558Z" fill="white"/>
<path d="M81.2722 85.6965L81.4222 85.5409L81.5778 85.6908L81.4278 85.8464L81.2722 85.6965Z" fill="white"/>
<path d="M88.1431 80.9143L88.2931 80.7587L88.4487 80.9087L88.2987 81.0642L88.1431 80.9143Z" fill="white"/>
<path d="M76.944 85.5761L77.094 85.4205L77.2496 85.5705L77.0996 85.7261L76.944 85.5761Z" fill="white"/>
<path d="M60.2606 77.4426L60.4106 77.287L60.5662 77.4369L60.4162 77.5925L60.2606 77.4426Z" fill="white"/>
<path d="M64.9881 82.8373L65.1381 82.6817L65.2937 82.8316L65.1437 82.9872L64.9881 82.8373Z" fill="white"/>
<path d="M69.7571 84.4137L69.9071 84.2581L70.0627 84.4081L69.9127 84.5637L69.7571 84.4137Z" fill="white"/>
<path d="M78.4913 84.7294L78.6413 84.5738L78.7969 84.7238L78.6469 84.8794L78.4913 84.7294Z" fill="white"/>
<path d="M82.7417 84.7748L82.8917 84.6192L83.0473 84.7691L82.8973 84.9247L82.7417 84.7748Z" fill="white"/>
<path d="M89.6126 79.9926L89.7626 79.837L89.9182 79.9869L89.7682 80.1425L89.6126 79.9926Z" fill="white"/>
<path d="M64.0263 82.8105L64.1763 82.6549L64.3319 82.8049L64.1819 82.9605L64.0263 82.8105Z" fill="white"/>
<path d="M68.7953 84.387L68.9453 84.2314L69.1009 84.3814L68.9509 84.5369L68.7953 84.387Z" fill="white"/>
<path d="M62.0407 79.24L62.1907 79.0844L62.3463 79.2344L62.1963 79.39L62.0407 79.24Z" fill="white"/>
<path d="M65.8259 82.5544L65.9758 82.3989L66.1314 82.5488L65.9815 82.7044L65.8259 82.5544Z" fill="white"/>
<path d="M80.3371 84.7079L80.4871 84.5523L80.6427 84.7023L80.4927 84.8579L80.3371 84.7079Z" fill="white"/>
<path d="M84.6653 84.8282L84.8153 84.6726L84.9709 84.8226L84.8209 84.9782L84.6653 84.8282Z" fill="white"/>
<path d="M70.8265 87.5726L70.9765 87.417L71.1321 87.5669L70.9821 87.7225L70.8265 87.5726Z" fill="white"/>
<path d="M65.882 82.9203L66.032 82.7647L66.1876 82.9146L66.0376 83.0702L65.882 82.9203Z" fill="white"/>
<path d="M70.7012 84.5703L70.8512 84.4147L71.0068 84.5646L70.8568 84.7202L70.7012 84.5703Z" fill="white"/>
<path d="M79.3753 84.6811L79.5253 84.5256L79.6809 84.6755L79.5309 84.8311L79.3753 84.6811Z" fill="white"/>
<path d="M83.7035 84.8015L83.8535 84.6459L84.0091 84.7959L83.8591 84.9515L83.7035 84.8015Z" fill="white"/>
<path d="M81.2989 84.7346L81.4489 84.579L81.6045 84.729L81.4545 84.8846L81.2989 84.7346Z" fill="white"/>
<path d="M88.1699 79.9524L88.3199 79.7968L88.4755 79.9468L88.3255 80.1024L88.1699 79.9524Z" fill="white"/>
<path d="M85.5126 84.7446L85.6626 84.589L85.8182 84.739L85.6682 84.8946L85.5126 84.7446Z" fill="white"/>
<path d="M89.7925 78.1354L89.9425 77.9798L90.0981 78.1298L89.9481 78.2854L89.7925 78.1354Z" fill="white"/>
<path d="M69.7036 86.3373L69.8536 86.1818L70.0092 86.3317L69.8592 86.4873L69.7036 86.3373Z" fill="white"/>
<path d="M78.36 86.578L78.51 86.4225L78.6656 86.5724L78.5156 86.728L78.36 86.578Z" fill="white"/>
<path d="M74.0318 86.4577L74.1818 86.3021L74.3374 86.4521L74.1874 86.6077L74.0318 86.4577Z" fill="white"/>
<path d="M59.6842 75.3782L59.8342 75.2227L59.9898 75.3726L59.8398 75.5282L59.6842 75.3782Z" fill="white"/>
<path d="M65.34 82.2372L65.49 82.0816L65.6456 82.2316L65.4956 82.3872L65.34 82.2372Z" fill="white"/>
<path d="M68.7418 86.3106L68.8918 86.155L69.0474 86.305L68.8974 86.4606L68.7418 86.3106Z" fill="white"/>
<path d="M84.7188 82.9046L84.8688 82.749L85.0244 82.899L84.8744 83.0546L84.7188 82.9046Z" fill="white"/>
<path d="M62.1517 80.9937L62.3017 80.8381L62.4573 80.9881L62.3073 81.1437L62.1517 80.9937Z" fill="white"/>
<path d="M66.8583 84.8144L67.0083 84.6588L67.1639 84.8088L67.0139 84.9644L66.8583 84.8144Z" fill="white"/>
<path d="M71.6273 86.3908L71.7772 86.2352L71.9328 86.3852L71.7829 86.5408L71.6273 86.3908Z" fill="white"/>
<path d="M80.2836 86.6315L80.4336 86.4759L80.5892 86.6259L80.4392 86.7815L80.2836 86.6315Z" fill="white"/>
<path d="M87.1546 81.8493L87.3046 81.6937L87.4602 81.8437L87.3102 81.9993L87.1546 81.8493Z" fill="white"/>
<path d="M75.9554 86.5112L76.1054 86.3556L76.261 86.5056L76.111 86.6612L75.9554 86.5112Z" fill="white"/>
<path d="M83.7972 82.9674L83.9472 82.8118L84.1028 82.9618L83.9528 83.1174L83.7972 82.9674Z" fill="white"/>
<path d="M90.524 78.0573L90.674 77.9017L90.8296 78.0517L90.6796 78.2073L90.524 78.0573Z" fill="white"/>
<path d="M61.4216 79.3684L61.5716 79.2129L61.7272 79.3628L61.5772 79.5184L61.4216 79.3684Z" fill="white"/>
<path d="M65.8964 84.7876L66.0464 84.632L66.202 84.782L66.052 84.9376L65.8964 84.7876Z" fill="white"/>
<path d="M70.6654 86.3641L70.8154 86.2085L70.971 86.3585L70.821 86.5141L70.6654 86.3641Z" fill="white"/>
<path d="M79.3218 86.6048L79.4718 86.4492L79.6274 86.5992L79.4774 86.7548L79.3218 86.6048Z" fill="white"/>
<path d="M74.9936 86.4844L75.1436 86.3288L75.2992 86.4788L75.1492 86.6344L74.9936 86.4844Z" fill="white"/>
<path d="M90.9256 76.3417L91.0755 76.1861L91.2311 76.3361L91.0812 76.4917L90.9256 76.3417Z" fill="white"/>
<path d="M85.6806 82.9313L85.8306 82.7757L85.9862 82.9257L85.8362 83.0813L85.6806 82.9313Z" fill="white"/>
<path d="M63.1135 81.0204L63.2635 80.8648L63.4191 81.0148L63.2691 81.1704L63.1135 81.0204Z" fill="white"/>
<path d="M67.8201 84.8411L67.9701 84.6855L68.1257 84.8355L67.9757 84.9911L67.8201 84.8411Z" fill="white"/>
<path d="M72.5891 86.4176L72.7391 86.262L72.8947 86.412L72.7447 86.5676L72.5891 86.4176Z" fill="white"/>
<path d="M81.2454 86.6583L81.3954 86.5027L81.551 86.6527L81.401 86.8083L81.2454 86.6583Z" fill="white"/>
<path d="M88.025 81.788L88.175 81.6324L88.3306 81.7824L88.1806 81.938L88.025 81.788Z" fill="white"/>
<path d="M76.9173 86.5379L77.0673 86.3823L77.2229 86.5323L77.0729 86.6879L76.9173 86.5379Z" fill="white"/>
<path d="M52.9967 96.9122L64.3628 94.0103C64.4245 93.9945 64.4904 94.017 64.5304 94.0667C66.8421 96.9406 68.1293 98.6104 71.0519 100.572C74.4446 102.849 76.9814 102.829 80.4861 100.328C83.3857 98.259 84.4507 97.1772 86.683 94.1546C86.7221 94.1015 86.7903 94.0761 86.8542 94.0921L98.1347 96.9122C103.244 98.0761 105.051 99.7596 106.349 104.639C106.854 107.581 106.759 108.901 104.897 109.757C104.889 109.76 104.881 109.764 104.872 109.766C92.4286 113.209 85.7262 113.426 74.6304 108.542C63.4727 104.58 57.1595 104.408 45.886 108.496C45.8129 108.523 45.7291 108.494 45.6903 108.427C45.0903 107.382 45.0309 106.562 45.189 104.964C46.0961 99.757 47.9641 98.1468 52.9967 96.9122Z" fill="#ABDCEB"/>
<path d="M68.6933 86.8274C74.0165 88.6027 77.0479 88.757 82.6007 86.4207C82.926 91.8698 69.9946 93.0084 68.6933 86.8274Z" fill="#ABDCEB"/>
<path d="M76.257 57.2234V73.5707C78.5342 73.0014 80.8108 72.2575 80.4861 69.8295L77.8023 57.2234H76.257Z" fill="#ABDCEB"/>
<path d="M59.9097 53.9431V54.6269C59.9097 54.7598 60.0614 54.8365 60.1703 54.7603C63.1637 52.6666 65.3464 52.5932 69.3345 53.978C69.6551 54.0893 69.9946 53.8543 69.9946 53.5149V52.7579C69.9946 52.4651 69.7987 52.2077 69.5156 52.1331C64.9991 50.9436 62.7894 51.1957 60.0728 53.581C59.969 53.6721 59.9097 53.805 59.9097 53.9431Z" fill="#163A6D"/>
<path d="M81.488 53.4739L81.4443 52.7215C81.4341 52.5465 81.5429 52.3856 81.7092 52.3304C86.1519 50.8561 89.6478 50.794 91.2215 53.5894C91.3792 53.8697 91.0458 54.1283 90.7724 53.9588C88.1391 52.3263 85.1837 52.1694 82.0856 53.8005C81.8268 53.9368 81.5049 53.7659 81.488 53.4739Z" fill="#163A6D"/>
<circle cx="65.6028" cy="59.6632" r="1.05729" stroke="#163A6D" stroke-width="0.487978"/>
<circle cx="86.2786" cy="59.6632" r="1.05729" stroke="#163A6D" stroke-width="0.487978"/>
<path d="M73.2478 58.1993L71.6212 69.6668C71.4142 71.4611 71.9284 72.1669 73.7358 73.0013C75.3308 73.8865 76.3014 73.9376 78.2089 73.0013C79.7474 72.3348 80.33 71.7613 80.3235 69.9921" stroke="#163A6D" stroke-width="0.487978" stroke-linecap="round" stroke-linejoin="round"/>
<ellipse cx="57.4698" cy="65.6817" rx="1.13862" ry="1.62659" fill="#ABDCEB"/>
<ellipse cx="94.5741" cy="65.6143" rx="1.13862" ry="1.62659" fill="#ABDCEB"/>
<path d="M92.4416 44.3733L92.0349 57.874C93.1561 56.5103 93.5932 51.7272 94.0682 44.6986L92.4416 44.3733Z" fill="#ABDCEB" stroke="#163A6D" stroke-width="0.487978" stroke-linecap="round" stroke-linejoin="round"/>
<path d="M92.4416 44.3733C88.4564 39.7375 66.0908 36.4843 59.3404 45.0239L57.3885 42.1774C57.4274 41.7976 57.5622 41.4989 57.6325 41.1201C57.6931 40.7935 57.6853 40.3865 57.7678 40.0628C57.8796 39.6246 58.1337 39.3526 58.2831 38.9242C58.4272 38.5111 58.4652 37.941 58.6415 37.5416C58.853 37.0621 59.0868 36.5941 59.3404 36.1416C59.6223 35.6385 59.826 35.4799 60.1537 35.0204C60.3356 34.7653 60.738 34.3207 60.9001 34.0444C61.0899 33.7208 61.2848 33.4051 61.528 33.1498C61.7679 32.898 62.015 32.659 62.2683 32.4341C62.61 32.1306 62.9631 31.853 63.3256 31.6045C63.8037 31.2768 64.1667 31.1261 64.5455 31.0039C64.94 30.8766 65.3516 30.7803 65.9281 30.5472C66.1922 30.4405 66.4155 30.2156 66.7414 30.0593C67.0275 29.922 67.4114 29.8566 67.7174 29.7111C68.0163 29.569 68.3185 29.4297 68.612 29.3063C69.0192 29.1351 69.4908 29.2143 69.8319 29.1391C70.3246 29.0305 70.687 28.7707 71.1332 28.7491C71.6228 28.7254 72.1153 28.7235 72.6785 28.6767C73.0762 28.6436 73.2809 28.5378 73.7358 28.4717C74.2963 28.3901 74.8664 28.6674 75.3624 28.6767C75.6989 28.6829 76.2637 28.4136 76.5823 28.4717C76.9833 28.5447 77.3808 28.6338 77.8022 28.6767C78.1437 28.7114 78.5017 28.7138 78.8595 28.7196C79.275 28.7263 79.6903 28.7375 80.0795 28.8089C80.5998 28.9044 81.1155 29.0146 81.6247 29.1391C82.1193 29.2601 82.6079 29.5861 83.0887 29.7339C83.6005 29.8913 84.1037 29.8722 84.5961 30.0593C84.9957 30.211 85.3068 30.4577 85.6912 30.6286C86.0794 30.8011 86.5406 30.8981 86.9112 31.0897C87.2777 31.2793 87.6213 31.5594 87.9685 31.7672C88.2739 31.95 88.5852 32.0585 88.8742 32.2552C89.1496 32.4426 89.4172 32.7873 89.6764 32.9871C89.9576 33.2039 90.229 33.2769 90.4897 33.508C90.745 33.7343 90.9062 34.0487 91.1403 34.2884C91.3973 34.5516 91.6428 34.6601 91.8723 34.939C92.1527 35.2799 92.368 35.8764 92.6043 36.2403C92.8432 36.6084 93.0648 36.9067 93.2549 37.2976C93.4346 37.6672 93.7113 37.9655 93.8441 38.3549C93.9793 38.7515 93.9848 39.1583 94.0682 39.5748C94.1478 39.9726 94.3075 40.3793 94.3369 40.7948C94.3632 41.1674 94.2471 41.547 94.2308 41.9334C94.214 42.3328 94.2954 42.7396 94.2308 43.1534L92.4416 44.3733Z" fill="#ABDCEB" stroke="#163A6D" stroke-width="0.487978" stroke-linecap="round" stroke-linejoin="round"/>
<path d="M59.3404 44.9426L58.7711 57.386C57.3885 54.2142 57.3072 50.8796 57.3072 45.4305L59.3404 44.9426Z" fill="#ABDCEB" stroke="#163A6D" stroke-width="0.487978" stroke-linecap="round" stroke-linejoin="round"/>
<path d="M58.9337 69.0975C58.3643 96.7496 94.9628 92.1138 92.0348 68.7722" stroke="#163A6D" stroke-width="0.487978" stroke-linecap="round" stroke-linejoin="round"/>
<path d="M73.1665 92.6831C74.3864 93.9031 76.8263 94.147 78.1276 92.6831" stroke="#163A6D" stroke-width="0.487978" stroke-linecap="round" stroke-linejoin="round"/>
<path d="M45.1077 103.907C45.4455 101.196 47.4663 97.8882 48.6049 97.1562C49.9066 96.1844 51.5328 95.6923 57.1445 94.7163C60.4216 93.9239 62.2789 93.4133 65.6841 92.1951M65.6841 92.1951L67.4734 86.3394M65.6841 92.1951C65.3637 93.2905 65.6915 94.1901 66.2003 94.954C66.9828 96.1288 68.1101 97.0332 69.2521 97.8628C71.555 99.5356 73.8281 100.897 75.525 100.897C78.5342 100.572 81.3808 98.5388 83.5767 96.5869C85.4981 94.879 86.1795 93.8172 85.6099 92.1951M85.6099 92.1951L83.414 86.0954M85.6099 92.1951C90.589 93.9611 95.2068 95.123 100.168 95.9363C103.421 96.7496 105.942 99.8401 106.349 104.151" stroke="#163A6D" stroke-width="0.487978" stroke-linejoin="round"/>
<path d="M68.612 77.7997C71.7838 79.589 78.7782 79.9956 82.6007 77.7997" stroke="#163A6D" stroke-width="0.487978" stroke-linecap="round" stroke-linejoin="round"/>
<path d="M59.6657 68.5281C57.9879 70.3657 55.1328 69.6918 54.1845 68.1254C54.1506 68.0694 54.1268 68.0082 54.1098 67.945L52.9154 63.4857C52.2647 61.4525 52.8124 59.4461 53.81 58.2806C54.8076 57.1151 56.544 57.0616 58.0391 58.2806" stroke="#163A6D" stroke-width="0.487978" stroke-linecap="round" stroke-linejoin="round"/>
<path d="M91.4672 67.9892C93.1255 69.8054 95.9412 69.1526 96.8985 67.6139C96.943 67.5424 96.9708 67.4622 96.9868 67.3796L98.0533 61.8592C98.6999 59.8388 97.728 58.2807 96.4267 57.5487C95.1255 56.8167 93.8459 57.8827 92.3603 59.094" stroke="#163A6D" stroke-width="0.484893" stroke-linecap="round" stroke-linejoin="round"/>
<path d="M54.7859 62.5098C56.8338 63.0096 57.9578 64.4617 57.8765 65.763C57.725 66.8987 56.6572 66.9066 56.1167 66.5741C56.0394 66.5265 55.9752 66.4609 55.9193 66.3893C55.5242 65.8827 55.5725 65.5589 55.6806 65.031" stroke="#163A6D" stroke-width="0.487978" stroke-linecap="round" stroke-linejoin="round"/>
<path d="M96.1673 62.1031C94.1324 62.5998 93.0155 64.0427 93.0963 65.3358C93.2468 66.4644 94.3079 66.4722 94.8449 66.1418C94.9218 66.0945 94.9856 66.0293 95.0411 65.9582C95.4337 65.4547 95.3857 65.133 95.2783 64.6084" stroke="#163A6D" stroke-width="0.484893" stroke-linecap="round" stroke-linejoin="round"/>
<line x1="66.1721" y1="62.0218" x2="64.8708" y2="62.0218" stroke="#163A6D" stroke-width="0.487978" stroke-linecap="round"/>
<line x1="86.9925" y1="61.8591" x2="85.6912" y2="61.8591" stroke="#163A6D" stroke-width="0.487978" stroke-linecap="round"/>
<path d="M58.6898 56.1661L58.8994 58.682C58.9117 58.8293 58.7372 58.9153 58.6279 58.8159L58.0391 58.2806" stroke="#163A6D" stroke-width="0.487978"/>
<path d="M92.1294 55.5968L92.0443 59.1137C92.0408 59.2577 92.2125 59.3349 92.3179 59.2365L93.2549 58.362" stroke="#163A6D" stroke-width="0.487978"/>
</svg>
